<svg xmlns="http://www.w3.org/2000/svg" xmlns:xlink="http://www.w3.org/1999/xlink" xmlns:lucid="lucid" width="1436" height="1270"><g transform="translate(-180 -20)" lucid:page-tab-id="0_0"><path d="M0 0h1870.87v1322.83H0z" fill="#fff"/><path d="M200 315.92a6.8 6.8 0 0 1 5.95-6.74l148.1-18.44A5.3 5.3 0 0 1 360 296v108a6 6 0 0 1-6 6H206a6 6 0 0 1-6-6z" stroke="#3a414a" fill="#fff"/><use xlink:href="#a" transform="matrix(1,0,0,1,205,315) translate(8.395061728395063 37.46527777777778)"/><use xlink:href="#b" transform="matrix(1,0,0,1,205,315) translate(77.4074074074074 37.46527777777778)"/><use xlink:href="#c" transform="matrix(1,0,0,1,205,315) translate(34.29012345679012 64.13194444444446)"/><path d="M380 456a6 6 0 0 1 6-6h148a6 6 0 0 1 6 6v108a6 6 0 0 1-6 6H386a6 6 0 0 1-6-6z" stroke="#3a414a" fill="#fff"/><use xlink:href="#a" transform="matrix(1,0,0,1,392,462) translate(19.327160493827165 53.77777777777778)"/><use xlink:href="#d" transform="matrix(1,0,0,1,392,462) translate(88.3395061728395 53.77777777777778)"/><path d="M280 410.96V504a6 6 0 0 0 6 6h77.15" stroke="#3a414a" fill="none"/><path d="M280.5 410.98h-1v-.52h1z" stroke="#3a414a" stroke-width=".05" fill="#3a414a"/><path d="M377.92 510l-14.27 4.64v-9.28z" stroke="#3a414a" fill="#3a414a"/><path d="M610 456a6 6 0 0 1 6-6h148a6 6 0 0 1 6 6v108a6 6 0 0 1-6 6H616a6 6 0 0 1-6-6z" stroke="#3a414a" fill="#fff"/><use xlink:href="#e" transform="matrix(1,0,0,1,622,462) translate(36.54938271604938 38.77777777777778)"/><use xlink:href="#f" transform="matrix(1,0,0,1,622,462) translate(11.888888888888886 65.44444444444446)"/><path d="M540.96 510h52.2" stroke="#3a414a" fill="none"/><path d="M540.98 510.5h-.52v-1h.52z" stroke="#3a414a" stroke-width=".05" fill="#3a414a"/><path d="M607.92 510l-14.27 4.64v-9.28z" stroke="#3a414a" fill="#3a414a"/><path d="M915.2 453.6a8 8 0 0 1 9.6 0l70.4 52.8a4.5 4.5 0 0 1 0 7.2l-70.4 52.8a8 8 0 0 1-9.6 0l-70.4-52.8a4.5 4.5 0 0 1 0-7.2z" stroke="#3a414a" fill="#fff"/><use xlink:href="#g" transform="matrix(1,0,0,1,845,455) translate(21.332160493827153 59.02777777777778)"/><path d="M770.96 510h55.15" stroke="#3a414a" fill="none"/><path d="M770.98 510.5h-.52v-1h.52z" stroke="#3a414a" stroke-width=".05" fill="#3a414a"/><path d="M840.88 510l-14.27 4.64v-9.28z" stroke="#3a414a" fill="#3a414a"/><path d="M920.5 451h-1v-54.97h1zm285.6-220.5l-280.98.07-.82.2-.8.33-.73.45-.66.56-.55.67-.45.73-.33.8-.2.84-.07.88V374.7h-1V235.97l.08-1 .24-1 .4-.93.52-.87.66-.78.78-.66.87-.53.94-.38 1-.25 281.1-.07z" stroke="#3a414a" stroke-width=".05" fill="#3a414a"/><path d="M920.5 451.53l-.5-.03-.5.03V451h1z" fill="#3a414a"/><path d="M920.52 451.56l-.52-.04-.52.04v-.6h1.04zm-1-.55v.5l.48-.03.48.03v-.5z" stroke="#3a414a" stroke-width=".05" fill="#3a414a"/><path d="M1220.88 230l-14.27 4.64v-9.28z" fill="#3a414a"/><path d="M1222.5 230l-16.4 5.32v-10.64zm-15.4 3.95l12.16-3.95-12.15-3.95z" stroke="#3a414a" stroke-width=".05" fill="#3a414a"/><use xlink:href="#h" transform="matrix(1,0,0,1,904.6913580246913,374.6931523577498) translate(0 14.222222222222223)"/><path d="M920.5 703.98l.07.88.2.84.33.8.45.73.56.66.67.55.73.45.8.33.82.2 39.5.07v1l-39.62-.07-1-.25-.95-.4-.87-.52-.78-.66-.66-.78-.53-.87-.38-.94-.24-.98-.08-1v-64.37h1zm0-85.66h-1V569h1z" stroke="#3a414a" stroke-width=".05" fill="#3a414a"/><path d="M920 568.5l.5-.03v.54h-1v-.53z" fill="#3a414a"/><path d="M920 568.48l.52-.04v.6h-1.04v-.6zm-.48.5h.96v-.48l-.48.03-.48-.03z" stroke="#3a414a" stroke-width=".05" fill="#3a414a"/><path d="M979.38 710l-14.26 4.64v-9.28z" fill="#3a414a"/><path d="M981 710l-16.38 5.32v-10.64zm-15.38 3.95l12.14-3.95-12.14-3.95z" stroke="#3a414a" stroke-width=".05" fill="#3a414a"/><use xlink:href="#i" transform="matrix(1,0,0,1,908.1975308641976,618.3203184218395) translate(0 14.222222222222223)"/><path d="M1009.18 655.3a10 10 0 0 1 8.82-5.3h106c8.84 0 16 26.86 16 60s-7.16 60-16 60h-106a10 10 0 0 1-8.82-5.3l-26.36-49.4a11.25 11.25 0 0 1 0-10.6z" stroke="#3a414a" fill="#fff"/><use xlink:href="#j" transform="matrix(1,0,0,1,985,655) translate(47.177839506172845 31.52777777777778)"/><use xlink:href="#k" transform="matrix(1,0,0,1,985,655) translate(20.39388888888888 58.19444444444445)"/><use xlink:href="#l" transform="matrix(1,0,0,1,985,655) translate(51.023518518518514 84.86111111111111)"/><path d="M1300 490.96v52.2" stroke="#3a414a" fill="none"/><path d="M1300.5 490.98h-1v-.52h1z" stroke="#3a414a" stroke-width=".05" fill="#3a414a"/><path d="M1300 557.92l-4.64-14.27h9.28z" stroke="#3a414a" fill="#3a414a"/><path d="M1220 566a6 6 0 0 1 6-6h148a6 6 0 0 1 6 6v108a6 6 0 0 1-6 6h-148a6 6 0 0 1-6-6z" stroke="#3a414a" fill="#fff"/><use xlink:href="#m" transform="matrix(1,0,0,1,1232,572) translate(12.506172839506178 53.77777777777778)"/><use xlink:href="#n" transform="matrix(1,0,0,1,1232,572) translate(76.64197530864197 53.77777777777778)"/><path d="M1220 756a6 6 0 0 1 6-6h148a6 6 0 0 1 6 6v108a6 6 0 0 1-6 6h-148a6 6 0 0 1-6-6zm16-6v120m-16-104h160" stroke="#3a414a" fill="#fff"/><use xlink:href="#o" transform="matrix(1,0,0,1,1241,771) translate(7.64691358024691 50.09027777777778)"/><use xlink:href="#p" transform="matrix(1,0,0,1,1241,771) translate(65.05432098765432 50.09027777777778)"/><use xlink:href="#q" transform="matrix(1,0,0,1,1241,771) translate(89.74567901234568 50.09027777777778)"/><path d="M1300 680.96v52.2" stroke="#3a414a" fill="none"/><path d="M1300.5 680.98h-1v-.52h1z" stroke="#3a414a" stroke-width=".05" fill="#3a414a"/><path d="M1300 747.92l-4.64-14.27h9.28z" stroke="#3a414a" fill="#3a414a"/><path d="M1295.26 943.68a7.7 7.7 0 0 1 9.48 0l80.52 62.64a4.67 4.67 0 0 1 0 7.36l-80.52 62.64a7.7 7.7 0 0 1-9.48 0l-80.52-62.64a4.67 4.67 0 0 1 0-7.36z" stroke="#3a414a" fill="#fff"/><use xlink:href="#r" transform="matrix(1,0,0,1,1215,945) translate(36.33216049382715 50.27777777777778)"/><use xlink:href="#s" transform="matrix(1,0,0,1,1215,945) translate(31.332160493827157 76.94444444444446)"/><path d="M1300 870.96v54.2" stroke="#3a414a" fill="none"/><path d="M1300.5 870.98h-1v-.52h1z" stroke="#3a414a" stroke-width=".05" fill="#3a414a"/><path d="M1300 939.94l-4.64-14.27h9.28z" stroke="#3a414a" fill="#3a414a"/><path d="M1163.1 1010.5H1136l-.88.07-.84.2-.8.33-.73.45-.66.56-.55.67-.45.73-.33.8-.2.82-.07 191.75.07.88.2.84.33.8.45.73.56.65.67.56.73.45.8.32.82.2 68.04.07v1l-68.16-.08-1-.24-.95-.4-.87-.53-.78-.66-.66-.78-.53-.87-.38-.95-.24-1-.08-1 .07-191.9.25-1 .4-.95.52-.87.66-.78.78-.66.87-.53.94-.38.98-.24 1-.08h27.1zm48.83 0h-18.22v-1h18.23z" stroke="#3a414a" stroke-width=".05" fill="#3a414a"/><path d="M1212.43 1010l.05.5h-.56v-1h.56z" fill="#3a414a"/><path d="M1212.46 1010l.05.52h-.6v-1.04h.6zm-.52-.48v.96h.5l-.03-.48.05-.48z" stroke="#3a414a" stroke-width=".05" fill="#3a414a"/><path d="M1217.92 1212.9l-14.27 4.63v-9.27z" fill="#3a414a"/><path d="M1219.54 1212.9l-16.4 5.32v-10.65zm-15.4 3.94l12.16-3.95-12.15-3.95z" stroke="#3a414a" stroke-width=".05" fill="#3a414a"/><use xlink:href="#h" transform="matrix(1,0,0,1,1163.0941188543954,999.3333333333334) translate(0 14.222222222222223)"/><path d="M1220 1156a6 6 0 0 1 6-6h148a6 6 0 0 1 6 6v108a6 6 0 0 1-6 6h-148a6 6 0 0 1-6-6z" stroke="#3a414a" fill="#fff"/><use xlink:href="#t" transform="matrix(1,0,0,1,1232,1162) translate(8.15432098765433 38.77777777777778)"/><use xlink:href="#u" transform="matrix(1,0,0,1,1232,1162) translate(80.99382716049382 38.77777777777778)"/><use xlink:href="#v" transform="matrix(1,0,0,1,1232,1162) translate(22.444444444444443 65.44444444444446)"/><use xlink:href="#w" transform="matrix(1,0,0,1,1232,1162) translate(56.95061728395061 65.44444444444446)"/><path d="M1422.82 1010.5h-34.75v-1h34.75zM1475 89.57l1 .25.95.4.87.52.78.66.66.78.53.87.38.94.24.98.08 1-.07 909.02-.25 1-.4.95-.52.87-.66.78-.78.66-.87.53-.94.38-.98.24-1 .08h-27.6v-1H1474l.88-.07.84-.2.8-.33.73-.45.66-.56.55-.67.45-.73.33-.8.2-.82.07-908.86-.07-.88-.2-.84-.33-.8-.45-.73-.56-.66-.67-.55-.73-.45-.8-.33-.82-.2-168.86-.07-.88.07-.84.2-.8.33-.73.45-.66.56-.55.67-.45.73-.33.8-.2.82-.07 60h-1l.07-60.12.25-1 .4-.95.52-.87.66-.78.78-.66.87-.53.94-.38.98-.24 1-.08z" stroke="#3a414a" stroke-width=".05" fill="#3a414a"/><path d="M1388.08 1010.5h-.56l.05-.5-.05-.5h.56z" fill="#3a414a"/><path d="M1388.1 1010.52h-.6l.04-.52-.05-.52h.6zm-.55-1l.04.48-.05.48h.5v-.96z" stroke="#3a414a" stroke-width=".05" fill="#3a414a"/><path d="M1300 169.88l-4.64-14.26h9.28z" fill="#3a414a"/><path d="M1300 171.5l-5.32-16.38h10.64zm-3.95-15.38l3.95 12.14 3.95-12.14z" stroke="#3a414a" stroke-width=".05" fill="#3a414a"/><use xlink:href="#i" transform="matrix(1,0,0,1,1422.8214921787132,999.3333333333334) translate(0 14.222222222222223)"/><path d="M1295.2 173.6a8 8 0 0 1 9.6 0l70.4 52.8a4.5 4.5 0 0 1 0 7.2l-70.4 52.8a8 8 0 0 1-9.6 0l-70.4-52.8a4.5 4.5 0 0 1 0-7.2z" stroke="#3a414a" fill="#fff"/><use xlink:href="#x" transform="matrix(1,0,0,1,1225,175) translate(20.15932098765432 59.02777777777778)"/><use xlink:href="#y" transform="matrix(1,0,0,1,1225,175) translate(70.65314814814815 59.02777777777778)"/><path d="M1220 376a6 6 0 0 1 6-6h148a6 6 0 0 1 6 6v108a6 6 0 0 1-6 6h-148a6 6 0 0 1-6-6z" stroke="#3a414a" fill="#fff"/><use xlink:href="#z" transform="matrix(1,0,0,1,1232,382) translate(1.4259259259259238 53.77777777777778)"/><use xlink:href="#n" transform="matrix(1,0,0,1,1232,382) translate(87.72222222222221 53.77777777777778)"/><path d="M1300.5 353.15h-1V339.7h1zm0-34.8h-1V289h1z" stroke="#3a414a" stroke-width=".05" fill="#3a414a"/><path d="M1300 288.5l.5-.03v.54h-1v-.53z" fill="#3a414a"/><path d="M1300 288.48l.53-.04v.6h-1.06v-.6zm-.47.5h.94v-.48l-.47.03-.47-.03z" stroke="#3a414a" stroke-width=".05" fill="#3a414a"/><path d="M1300 367.92l-4.64-14.27h9.28z" fill="#3a414a"/><path d="M1300 369.54l-5.32-16.4h10.64zm-3.95-15.4l3.95 12.16 3.95-12.15z" stroke="#3a414a" stroke-width=".05" fill="#3a414a"/><g><use xlink:href="#h" transform="matrix(1,0,0,1,1284.6913580246915,318.35221376680346) translate(0 14.222222222222223)"/></g><path d="M1605 69.57l1 .25.95.4.87.52.78.66.66.78.53.87.38.94.24.98.08 1-.07 1129.02-.25 1-.4.95-.52.87-.66.78-.78.66-.87.53-.94.38-.98.24-1 .08h-223.06v-1h223.02l.88-.07.84-.2.8-.33.73-.45.66-.56.55-.67.45-.73.33-.8.2-.82.07-1128.86-.07-.88-.2-.84-.33-.8-.45-.73-.56-.66-.67-.55-.73-.45-.8-.33-.82-.2-298.86-.07-.88.07-.84.2-.8.33-.73.45-.66.56-.55.67-.45.73-.33.8-.2.82-.07 80h-1l.07-80.12.25-1 .4-.95.52-.87.66-.78.78-.66.87-.53.94-.38.98-.24 1-.08z" stroke="#3a414a" stroke-width=".05" fill="#3a414a"/><path d="M1380.98 1210.5h-.52v-1h.52z" fill="#3a414a"/><path d="M1381 1210.53h-.56v-1.06h.56zm-.5-1v.94h.45v-.94z" stroke="#3a414a" stroke-width=".05" fill="#3a414a"/><path d="M1300 169.88l-4.64-14.26h9.28z" fill="#3a414a"/><path d="M1300 171.5l-5.32-16.38h10.64zm-3.95-15.38l3.95 12.14 3.95-12.14z" stroke="#3a414a" stroke-width=".05" fill="#3a414a"/><path d="M1417.93 225l-.24 1-.4.95-.54.87-.66.78-.78.66-.87.53-.94.38-.98.24-1 .08H1378v-1h33.48l.88-.07.84-.2.8-.33.73-.45.66-.56.55-.67.45-.73.33-.8.2-.82.03-48.5h1zm-5.43-115.43l1 .25.95.4.87.52.78.66.66.78.54.87.4.94.22.98.08 1-.02 39.06h-1l.02-39.02-.07-.88-.2-.84-.33-.8-.45-.73-.56-.66-.67-.55-.73-.45-.8-.33-.82-.2-106.36-.07-.88.07-.84.2-.8.33-.73.45-.66.56-.55.67-.45.73-.33.8-.2.82-.07 40h-1l.07-40.12.25-1 .4-.95.52-.87.66-.78.78-.66.87-.53.94-.38.98-.24 1-.08z" stroke="#3a414a" stroke-width=".05" fill="#3a414a"/><path d="M1378 230.5h-.54l.04-.5-.04-.5h.55z" fill="#3a414a"/><path d="M1378.04 230.53h-.6l.04-.53-.05-.53h.6zm-.56-1l.05.47-.05.47h.5v-.94z" stroke="#3a414a" stroke-width=".05" fill="#3a414a"/><path d="M1300 169.88l-4.64-14.26h9.28z" fill="#3a414a"/><path d="M1300 171.5l-5.32-16.38h10.64zm-3.95-15.38l3.95 12.14 3.95-12.14z" stroke="#3a414a" stroke-width=".05" fill="#3a414a"/><g><use xlink:href="#i" transform="matrix(1,0,0,1,1405.699645843204,155.0401120629348) translate(0 14.222222222222223)"/></g><path d="M440 46a6 6 0 0 1 6-6h708a6 6 0 0 1 6 6v108a6 6 0 0 1-6 6H446a6 6 0 0 1-6-6z" stroke="#000" stroke-opacity="0" fill="#fff" fill-opacity="0"/><g><use xlink:href="#A" transform="matrix(1,0,0,1,445,45) translate(11.543209876543244 63.05555555555556)"/><use xlink:href="#B" transform="matrix(1,0,0,1,445,45) translate(183.8888888888889 63.05555555555556)"/><use xlink:href="#C" transform="matrix(1,0,0,1,445,45) translate(346.358024691358 63.05555555555556)"/><use xlink:href="#D" transform="matrix(1,0,0,1,445,45) translate(469.44444444444446 63.05555555555556)"/><use xlink:href="#E" transform="matrix(1,0,0,1,445,45) translate(582.7777777777778 63.05555555555556)"/></g><defs><path fill="#3a414a" d="M30-248c87 1 191-15 191 75 0 78-77 80-158 76V0H30v-248zm33 125c57 0 124 11 124-50 0-59-68-47-124-48v98" id="F"/><path fill="#3a414a" d="M100-194c62-1 85 37 85 99 1 63-27 99-86 99S16-35 15-95c0-66 28-99 85-99zM99-20c44 1 53-31 53-75 0-43-8-75-51-75s-53 32-53 75 10 74 51 75" id="G"/><path fill="#3a414a" d="M206 0h-36l-40-164L89 0H53L-1-190h32L70-26l43-164h34l41 164 42-164h31" id="H"/><path fill="#3a414a" d="M100-194c63 0 86 42 84 106H49c0 40 14 67 53 68 26 1 43-12 49-29l28 8c-11 28-37 45-77 45C44 4 14-33 15-96c1-61 26-98 85-98zm52 81c6-60-76-77-97-28-3 7-6 17-6 28h103" id="I"/><path fill="#3a414a" d="M114-163C36-179 61-72 57 0H25l-1-190h30c1 12-1 29 2 39 6-27 23-49 58-41v29" id="J"/><g id="a"><use transform="matrix(0.06172839506172839,0,0,0.06172839506172839,0,0)" xlink:href="#F"/><use transform="matrix(0.06172839506172839,0,0,0.06172839506172839,14.814814814814813,0)" xlink:href="#G"/><use transform="matrix(0.06172839506172839,0,0,0.06172839506172839,27.160493827160494,0)" xlink:href="#H"/><use transform="matrix(0.06172839506172839,0,0,0.06172839506172839,43.148148148148145,0)" xlink:href="#I"/><use transform="matrix(0.06172839506172839,0,0,0.06172839506172839,55.49382716049382,0)" xlink:href="#J"/></g><path fill="#3a414a" d="M160-131c35 5 61 23 61 61C221 17 115-2 30 0v-248c76 3 177-17 177 60 0 33-19 50-47 57zm-97-11c50-1 110 9 110-42 0-47-63-36-110-37v79zm0 115c55-2 124 14 124-45 0-56-70-42-124-44v89" id="K"/><path fill="#3a414a" d="M84 4C-5 8 30-112 23-190h32v120c0 31 7 50 39 49 72-2 45-101 50-169h31l1 190h-30c-1-10 1-25-2-33-11 22-28 36-60 37" id="L"/><path fill="#3a414a" d="M59-47c-2 24 18 29 38 22v24C64 9 27 4 27-40v-127H5v-23h24l9-43h21v43h35v23H59v120" id="M"/><path fill="#3a414a" d="M117-194c89-4 53 116 60 194h-32v-121c0-31-8-49-39-48C34-167 62-67 57 0H25l-1-190h30c1 10-1 24 2 32 11-22 29-35 61-36" id="N"/><g id="b"><use transform="matrix(0.06172839506172839,0,0,0.06172839506172839,0,0)" xlink:href="#K"/><use transform="matrix(0.06172839506172839,0,0,0.06172839506172839,14.814814814814813,0)" xlink:href="#L"/><use transform="matrix(0.06172839506172839,0,0,0.06172839506172839,27.160493827160494,0)" xlink:href="#M"/><use transform="matrix(0.06172839506172839,0,0,0.06172839506172839,33.333333333333336,0)" xlink:href="#M"/><use transform="matrix(0.06172839506172839,0,0,0.06172839506172839,39.50617283950618,0)" xlink:href="#G"/><use transform="matrix(0.06172839506172839,0,0,0.06172839506172839,51.851851851851855,0)" xlink:href="#N"/></g><path fill="#3a414a" d="M135-143c-3-34-86-38-87 0 15 53 115 12 119 90S17 21 10-45l28-5c4 36 97 45 98 0-10-56-113-15-118-90-4-57 82-63 122-42 12 7 21 19 24 35" id="O"/><path fill="#3a414a" d="M85-194c31 0 48 13 60 33l-1-100h32l1 261h-30c-2-10 0-23-3-31C134-8 116 4 85 4 32 4 16-35 15-94c0-66 23-100 70-100zm9 24c-40 0-46 34-46 75 0 40 6 74 45 74 42 0 51-32 51-76 0-42-9-74-50-73" id="P"/><g id="c"><use transform="matrix(0.06172839506172839,0,0,0.06172839506172839,0,0)" xlink:href="#F"/><use transform="matrix(0.06172839506172839,0,0,0.06172839506172839,14.814814814814813,0)" xlink:href="#J"/><use transform="matrix(0.06172839506172839,0,0,0.06172839506172839,22.160493827160494,0)" xlink:href="#I"/><use transform="matrix(0.06172839506172839,0,0,0.06172839506172839,34.50617283950617,0)" xlink:href="#O"/><use transform="matrix(0.06172839506172839,0,0,0.06172839506172839,45.61728395061728,0)" xlink:href="#O"/><use transform="matrix(0.06172839506172839,0,0,0.06172839506172839,56.72839506172839,0)" xlink:href="#I"/><use transform="matrix(0.06172839506172839,0,0,0.06172839506172839,69.07407407407408,0)" xlink:href="#P"/></g><path fill="#3a414a" d="M232-93c-1 65-40 97-104 97C67 4 28-28 28-90v-158h33c8 89-33 224 67 224 102 0 64-133 71-224h33v155" id="Q"/><path fill="#3a414a" d="M115-194c55 1 70 41 70 98S169 2 115 4C84 4 66-9 55-30l1 105H24l-1-265h31l2 30c10-21 28-34 59-34zm-8 174c40 0 45-34 45-75s-6-73-45-74c-42 0-51 32-51 76 0 43 10 73 51 73" id="R"/><g id="d"><use transform="matrix(0.06172839506172839,0,0,0.06172839506172839,0,0)" xlink:href="#Q"/><use transform="matrix(0.06172839506172839,0,0,0.06172839506172839,15.987654320987653,0)" xlink:href="#R"/></g><path fill="#3a414a" d="M212-179c-10-28-35-45-73-45-59 0-87 40-87 99 0 60 29 101 89 101 43 0 62-24 78-52l27 14C228-24 195 4 139 4 59 4 22-46 18-125c-6-104 99-153 187-111 19 9 31 26 39 46" id="S"/><path fill="#3a414a" d="M106-169C34-169 62-67 57 0H25v-261h32l-1 103c12-21 28-36 61-36 89 0 53 116 60 194h-32v-121c2-32-8-49-39-48" id="T"/><path fill="#3a414a" d="M96-169c-40 0-48 33-48 73s9 75 48 75c24 0 41-14 43-38l32 2c-6 37-31 61-74 61-59 0-76-41-82-99-10-93 101-131 147-64 4 7 5 14 7 22l-32 3c-4-21-16-35-41-35" id="U"/><path fill="#3a414a" d="M143 0L79-87 56-68V0H24v-261h32v163l83-92h37l-77 82L181 0h-38" id="V"/><g id="e"><use transform="matrix(0.06172839506172839,0,0,0.06172839506172839,0,0)" xlink:href="#S"/><use transform="matrix(0.06172839506172839,0,0,0.06172839506172839,15.987654320987653,0)" xlink:href="#T"/><use transform="matrix(0.06172839506172839,0,0,0.06172839506172839,28.333333333333332,0)" xlink:href="#I"/><use transform="matrix(0.06172839506172839,0,0,0.06172839506172839,40.67901234567901,0)" xlink:href="#U"/><use transform="matrix(0.06172839506172839,0,0,0.06172839506172839,51.79012345679013,0)" xlink:href="#V"/></g><path fill="#3a414a" d="M24-231v-30h32v30H24zM24 0v-190h32V0H24" id="W"/><g id="f"><use transform="matrix(0.06172839506172839,0,0,0.06172839506172839,0,0)" xlink:href="#S"/><use transform="matrix(0.06172839506172839,0,0,0.06172839506172839,15.987654320987653,0)" xlink:href="#G"/><use transform="matrix(0.06172839506172839,0,0,0.06172839506172839,28.333333333333332,0)" xlink:href="#N"/><use transform="matrix(0.06172839506172839,0,0,0.06172839506172839,40.67901234567901,0)" xlink:href="#N"/><use transform="matrix(0.06172839506172839,0,0,0.06172839506172839,53.02469135802469,0)" xlink:href="#I"/><use transform="matrix(0.06172839506172839,0,0,0.06172839506172839,65.37037037037037,0)" xlink:href="#U"/><use transform="matrix(0.06172839506172839,0,0,0.06172839506172839,76.48148148148148,0)" xlink:href="#M"/><use transform="matrix(0.06172839506172839,0,0,0.06172839506172839,82.65432098765432,0)" xlink:href="#W"/><use transform="matrix(0.06172839506172839,0,0,0.06172839506172839,87.53086419753086,0)" xlink:href="#G"/><use transform="matrix(0.06172839506172839,0,0,0.06172839506172839,99.87654320987654,0)" xlink:href="#N"/></g><g id="g"><use transform="matrix(0.06172839506172839,0,0,0.06172839506172839,0,0)" xlink:href="#S"/><use transform="matrix(0.06172839506172839,0,0,0.06172839506172839,15.987654320987653,0)" xlink:href="#G"/><use transform="matrix(0.06172839506172839,0,0,0.06172839506172839,28.333333333333332,0)" xlink:href="#N"/><use transform="matrix(0.06172839506172839,0,0,0.06172839506172839,40.67901234567901,0)" xlink:href="#N"/><use transform="matrix(0.06172839506172839,0,0,0.06172839506172839,53.02469135802469,0)" xlink:href="#I"/><use transform="matrix(0.06172839506172839,0,0,0.06172839506172839,65.37037037037037,0)" xlink:href="#U"/><use transform="matrix(0.06172839506172839,0,0,0.06172839506172839,76.48148148148148,0)" xlink:href="#M"/><use transform="matrix(0.06172839506172839,0,0,0.06172839506172839,82.65432098765432,0)" xlink:href="#I"/><use transform="matrix(0.06172839506172839,0,0,0.06172839506172839,95,0)" xlink:href="#P"/></g><path fill="#333" d="M146-102V0H94v-102L6-248h54l60 105 60-105h54" id="X"/><path fill="#333" d="M185-48c-13 30-37 53-82 52C43 2 14-33 14-96s30-98 90-98c62 0 83 45 84 108H66c0 31 8 55 39 56 18 0 30-7 34-22zm-45-69c5-46-57-63-70-21-2 6-4 13-4 21h74" id="Y"/><path fill="#333" d="M137-138c1-29-70-34-71-4 15 46 118 7 119 86 1 83-164 76-172 9l43-7c4 19 20 25 44 25 33 8 57-30 24-41C81-84 22-81 20-136c-2-80 154-74 161-7" id="Z"/><g id="h"><use transform="matrix(0.04938271604938272,0,0,0.04938271604938272,0,0)" xlink:href="#X"/><use transform="matrix(0.04938271604938272,0,0,0.04938271604938272,10.864197530864198,0)" xlink:href="#Y"/><use transform="matrix(0.04938271604938272,0,0,0.04938271604938272,20.74074074074074,0)" xlink:href="#Z"/></g><path fill="#333" d="M175 0L67-191c6 58 2 128 3 191H24v-248h59L193-55c-6-58-2-129-3-193h46V0h-61" id="aa"/><path fill="#333" d="M110-194c64 0 96 36 96 99 0 64-35 99-97 99-61 0-95-36-95-99 0-62 34-99 96-99zm-1 164c35 0 45-28 45-65 0-40-10-65-43-65-34 0-45 26-45 65 0 36 10 65 43 65" id="ab"/><g id="i"><use transform="matrix(0.04938271604938272,0,0,0.04938271604938272,0,0)" xlink:href="#aa"/><use transform="matrix(0.04938271604938272,0,0,0.04938271604938272,12.790123456790125,0)" xlink:href="#ab"/></g><path fill="#3a414a" d="M30-248c118-7 216 8 213 122C240-48 200 0 122 0H30v-248zM63-27c89 8 146-16 146-99s-60-101-146-95v194" id="ac"/><path fill="#3a414a" d="M24 0v-261h32V0H24" id="ad"/><path fill="#3a414a" d="M141-36C126-15 110 5 73 4 37 3 15-17 15-53c-1-64 63-63 125-63 3-35-9-54-41-54-24 1-41 7-42 31l-33-3c5-37 33-52 76-52 45 0 72 20 72 64v82c-1 20 7 32 28 27v20c-31 9-61-2-59-35zM48-53c0 20 12 33 32 33 41-3 63-29 60-74-43 2-92-5-92 41" id="ae"/><path fill="#3a414a" d="M179-190L93 31C79 59 56 82 12 73V49c39 6 53-20 64-50L1-190h34L92-34l54-156h33" id="af"/><g id="j"><use transform="matrix(0.06172839506172839,0,0,0.06172839506172839,0,0)" xlink:href="#ac"/><use transform="matrix(0.06172839506172839,0,0,0.06172839506172839,15.987654320987653,0)" xlink:href="#W"/><use transform="matrix(0.06172839506172839,0,0,0.06172839506172839,20.864197530864196,0)" xlink:href="#O"/><use transform="matrix(0.06172839506172839,0,0,0.06172839506172839,31.975308641975307,0)" xlink:href="#R"/><use transform="matrix(0.06172839506172839,0,0,0.06172839506172839,44.32098765432099,0)" xlink:href="#ad"/><use transform="matrix(0.06172839506172839,0,0,0.06172839506172839,49.19753086419753,0)" xlink:href="#ae"/><use transform="matrix(0.06172839506172839,0,0,0.06172839506172839,61.54320987654321,0)" xlink:href="#af"/></g><g id="k"><use transform="matrix(0.06172839506172839,0,0,0.06172839506172839,0,0)" xlink:href="#S"/><use transform="matrix(0.06172839506172839,0,0,0.06172839506172839,15.987654320987653,0)" xlink:href="#G"/><use transform="matrix(0.06172839506172839,0,0,0.06172839506172839,28.333333333333332,0)" xlink:href="#N"/><use transform="matrix(0.06172839506172839,0,0,0.06172839506172839,40.67901234567901,0)" xlink:href="#N"/><use transform="matrix(0.06172839506172839,0,0,0.06172839506172839,53.02469135802469,0)" xlink:href="#I"/><use transform="matrix(0.06172839506172839,0,0,0.06172839506172839,65.37037037037037,0)" xlink:href="#U"/><use transform="matrix(0.06172839506172839,0,0,0.06172839506172839,76.48148148148148,0)" xlink:href="#M"/><use transform="matrix(0.06172839506172839,0,0,0.06172839506172839,82.65432098765432,0)" xlink:href="#W"/><use transform="matrix(0.06172839506172839,0,0,0.06172839506172839,87.53086419753086,0)" xlink:href="#G"/><use transform="matrix(0.06172839506172839,0,0,0.06172839506172839,99.87654320987654,0)" xlink:href="#N"/></g><path fill="#3a414a" d="M185-189c-5-48-123-54-124 2 14 75 158 14 163 119 3 78-121 87-175 55-17-10-28-26-33-46l33-7c5 56 141 63 141-1 0-78-155-14-162-118-5-82 145-84 179-34 5 7 8 16 11 25" id="ag"/><g id="l"><use transform="matrix(0.06172839506172839,0,0,0.06172839506172839,0,0)" xlink:href="#ag"/><use transform="matrix(0.06172839506172839,0,0,0.06172839506172839,14.814814814814813,0)" xlink:href="#M"/><use transform="matrix(0.06172839506172839,0,0,0.06172839506172839,20.98765432098765,0)" xlink:href="#ae"/><use transform="matrix(0.06172839506172839,0,0,0.06172839506172839,33.33333333333333,0)" xlink:href="#M"/><use transform="matrix(0.06172839506172839,0,0,0.06172839506172839,39.50617283950617,0)" xlink:href="#L"/><use transform="matrix(0.06172839506172839,0,0,0.06172839506172839,51.85185185185185,0)" xlink:href="#O"/></g><g id="m"><use transform="matrix(0.06172839506172839,0,0,0.06172839506172839,0,0)" xlink:href="#F"/><use transform="matrix(0.06172839506172839,0,0,0.06172839506172839,14.814814814814813,0)" xlink:href="#ae"/><use transform="matrix(0.06172839506172839,0,0,0.06172839506172839,27.160493827160494,0)" xlink:href="#J"/><use transform="matrix(0.06172839506172839,0,0,0.06172839506172839,34.50617283950617,0)" xlink:href="#O"/><use transform="matrix(0.06172839506172839,0,0,0.06172839506172839,45.61728395061728,0)" xlink:href="#I"/></g><g id="n"><use transform="matrix(0.06172839506172839,0,0,0.06172839506172839,0,0)" xlink:href="#ac"/><use transform="matrix(0.06172839506172839,0,0,0.06172839506172839,15.987654320987653,0)" xlink:href="#ae"/><use transform="matrix(0.06172839506172839,0,0,0.06172839506172839,28.333333333333332,0)" xlink:href="#M"/><use transform="matrix(0.06172839506172839,0,0,0.06172839506172839,34.50617283950617,0)" xlink:href="#ae"/></g><path fill="#3a414a" d="M266 0h-40l-56-210L115 0H75L2-248h35L96-30l15-64 43-154h32l59 218 59-218h35" id="ah"/><g id="o"><use transform="matrix(0.06172839506172839,0,0,0.06172839506172839,0,0)" xlink:href="#ah"/><use transform="matrix(0.06172839506172839,0,0,0.06172839506172839,20.493827160493826,0)" xlink:href="#J"/><use transform="matrix(0.06172839506172839,0,0,0.06172839506172839,27.839506172839506,0)" xlink:href="#W"/><use transform="matrix(0.06172839506172839,0,0,0.06172839506172839,32.71604938271605,0)" xlink:href="#M"/><use transform="matrix(0.06172839506172839,0,0,0.06172839506172839,38.88888888888889,0)" xlink:href="#I"/></g><g id="p"><use transform="matrix(0.06172839506172839,0,0,0.06172839506172839,0,0)" xlink:href="#M"/><use transform="matrix(0.06172839506172839,0,0,0.06172839506172839,6.172839506172839,0)" xlink:href="#G"/></g><path fill="#202122" d="M101-21c69 0 42-103 47-169h32l1 190h-29c-2-10 0-24-3-33-7 37-74 51-93 15v87H24v-259h32c7 65-25 169 45 169" id="ai"/><path fill="#202122" d="M185-189c-5-48-123-54-124 2 14 75 158 14 163 119 3 78-121 87-175 55-17-10-28-26-33-46l33-7c5 56 141 63 141-1 0-78-155-14-162-118-5-82 145-84 179-34 5 7 8 16 11 25" id="aj"/><path fill="#202122" d="M30-248c118-7 216 8 213 122C240-48 200 0 122 0H30v-248zM63-27c89 8 146-16 146-99s-60-101-146-95v194" id="ak"/><g id="q"><use transform="matrix(0.05185185185185186,0,0,0.05185185185185186,0,0)" xlink:href="#ai"/><use transform="matrix(0.05185185185185186,0,0,0.05185185185185186,10.733333333333334,0)" xlink:href="#aj"/><use transform="matrix(0.05185185185185186,0,0,0.05185185185185186,23.17777777777778,0)" xlink:href="#ak"/></g><path fill="#3a414a" d="M210-169c-67 3-38 105-44 169h-31v-121c0-29-5-50-35-48C34-165 62-65 56 0H25l-1-190h30c1 10-1 24 2 32 10-44 99-50 107 0 11-21 27-35 58-36 85-2 47 119 55 194h-31v-121c0-29-5-49-35-48" id="al"/><g id="r"><use transform="matrix(0.06172839506172839,0,0,0.06172839506172839,0,0)" xlink:href="#S"/><use transform="matrix(0.06172839506172839,0,0,0.06172839506172839,15.987654320987653,0)" xlink:href="#G"/><use transform="matrix(0.06172839506172839,0,0,0.06172839506172839,28.333333333333332,0)" xlink:href="#al"/><use transform="matrix(0.06172839506172839,0,0,0.06172839506172839,46.79012345679012,0)" xlink:href="#R"/><use transform="matrix(0.06172839506172839,0,0,0.06172839506172839,59.1358024691358,0)" xlink:href="#L"/><use transform="matrix(0.06172839506172839,0,0,0.06172839506172839,71.48148148148148,0)" xlink:href="#M"/><use transform="matrix(0.06172839506172839,0,0,0.06172839506172839,77.65432098765432,0)" xlink:href="#I"/><use transform="matrix(0.06172839506172839,0,0,0.06172839506172839,90,0)" xlink:href="#J"/></g><g id="s"><use transform="matrix(0.06172839506172839,0,0,0.06172839506172839,0,0)" xlink:href="#S"/><use transform="matrix(0.06172839506172839,0,0,0.06172839506172839,15.987654320987653,0)" xlink:href="#G"/><use transform="matrix(0.06172839506172839,0,0,0.06172839506172839,28.333333333333332,0)" xlink:href="#N"/><use transform="matrix(0.06172839506172839,0,0,0.06172839506172839,40.67901234567901,0)" xlink:href="#N"/><use transform="matrix(0.06172839506172839,0,0,0.06172839506172839,53.02469135802469,0)" xlink:href="#I"/><use transform="matrix(0.06172839506172839,0,0,0.06172839506172839,65.37037037037037,0)" xlink:href="#U"/><use transform="matrix(0.06172839506172839,0,0,0.06172839506172839,76.48148148148148,0)" xlink:href="#M"/><use transform="matrix(0.06172839506172839,0,0,0.06172839506172839,82.65432098765432,0)" xlink:href="#I"/><use transform="matrix(0.06172839506172839,0,0,0.06172839506172839,95,0)" xlink:href="#P"/></g><path fill="#3a414a" d="M140-251c81 0 123 46 123 126C263-46 219 4 140 4 59 4 17-45 17-125s42-126 123-126zm0 227c63 0 89-41 89-101s-29-99-89-99c-61 0-89 39-89 99S79-25 140-24" id="am"/><g id="t"><use transform="matrix(0.06172839506172839,0,0,0.06172839506172839,0,0)" xlink:href="#am"/><use transform="matrix(0.06172839506172839,0,0,0.06172839506172839,17.28395061728395,0)" xlink:href="#L"/><use transform="matrix(0.06172839506172839,0,0,0.06172839506172839,29.629629629629626,0)" xlink:href="#M"/><use transform="matrix(0.06172839506172839,0,0,0.06172839506172839,35.80246913580247,0)" xlink:href="#R"/><use transform="matrix(0.06172839506172839,0,0,0.06172839506172839,48.148148148148145,0)" xlink:href="#L"/><use transform="matrix(0.06172839506172839,0,0,0.06172839506172839,60.49382716049382,0)" xlink:href="#M"/></g><g id="u"><use transform="matrix(0.06172839506172839,0,0,0.06172839506172839,0,0)" xlink:href="#ac"/><use transform="matrix(0.06172839506172839,0,0,0.06172839506172839,15.987654320987653,0)" xlink:href="#ae"/><use transform="matrix(0.06172839506172839,0,0,0.06172839506172839,28.333333333333332,0)" xlink:href="#M"/><use transform="matrix(0.06172839506172839,0,0,0.06172839506172839,34.50617283950617,0)" xlink:href="#ae"/></g><path fill="#3a414a" d="M108 0H70L1-190h34L89-25l56-165h34" id="an"/><g id="v"><use transform="matrix(0.06172839506172839,0,0,0.06172839506172839,0,0)" xlink:href="#an"/><use transform="matrix(0.06172839506172839,0,0,0.06172839506172839,11.11111111111111,0)" xlink:href="#W"/><use transform="matrix(0.06172839506172839,0,0,0.06172839506172839,15.987654320987653,0)" xlink:href="#ae"/></g><g id="w"><use transform="matrix(0.06172839506172839,0,0,0.06172839506172839,0,0)" xlink:href="#ag"/><use transform="matrix(0.06172839506172839,0,0,0.06172839506172839,14.814814814814813,0)" xlink:href="#I"/><use transform="matrix(0.06172839506172839,0,0,0.06172839506172839,27.160493827160494,0)" xlink:href="#J"/><use transform="matrix(0.06172839506172839,0,0,0.06172839506172839,34.50617283950617,0)" xlink:href="#W"/><use transform="matrix(0.06172839506172839,0,0,0.06172839506172839,39.382716049382715,0)" xlink:href="#ae"/><use transform="matrix(0.06172839506172839,0,0,0.06172839506172839,51.72839506172839,0)" xlink:href="#ad"/></g><path fill="#3a414a" d="M190 0L58-211 59 0H30v-248h39L202-35l-2-213h31V0h-41" id="ao"/><g id="x"><use transform="matrix(0.06172839506172839,0,0,0.06172839506172839,0,0)" xlink:href="#ao"/><use transform="matrix(0.06172839506172839,0,0,0.06172839506172839,15.987654320987653,0)" xlink:href="#I"/><use transform="matrix(0.06172839506172839,0,0,0.06172839506172839,28.333333333333332,0)" xlink:href="#H"/></g><path fill="#3a414a" d="M103-251c84 0 111 97 45 133-19 10-37 24-39 52H78c0-63 77-55 77-114 0-30-21-42-52-43-32 0-53 17-56 46l-32-2c7-45 34-72 88-72zM77 0v-35h34V0H77" id="ap"/><g id="y"><use transform="matrix(0.06172839506172839,0,0,0.06172839506172839,0,0)" xlink:href="#ac"/><use transform="matrix(0.06172839506172839,0,0,0.06172839506172839,15.987654320987653,0)" xlink:href="#ae"/><use transform="matrix(0.06172839506172839,0,0,0.06172839506172839,28.333333333333332,0)" xlink:href="#M"/><use transform="matrix(0.06172839506172839,0,0,0.06172839506172839,34.50617283950617,0)" xlink:href="#ae"/><use transform="matrix(0.06172839506172839,0,0,0.06172839506172839,46.85185185185185,0)" xlink:href="#ap"/></g><path fill="#3a414a" d="M233-177c-1 41-23 64-60 70L243 0h-38l-65-103H63V0H30v-248c88 3 205-21 203 71zM63-129c60-2 137 13 137-47 0-61-80-42-137-45v92" id="aq"/><g id="z"><use transform="matrix(0.06172839506172839,0,0,0.06172839506172839,0,0)" xlink:href="#aq"/><use transform="matrix(0.06172839506172839,0,0,0.06172839506172839,15.987654320987653,0)" xlink:href="#I"/><use transform="matrix(0.06172839506172839,0,0,0.06172839506172839,28.333333333333332,0)" xlink:href="#U"/><use transform="matrix(0.06172839506172839,0,0,0.06172839506172839,39.44444444444444,0)" xlink:href="#W"/><use transform="matrix(0.06172839506172839,0,0,0.06172839506172839,44.32098765432099,0)" xlink:href="#I"/><use transform="matrix(0.06172839506172839,0,0,0.06172839506172839,56.666666666666664,0)" xlink:href="#an"/><use transform="matrix(0.06172839506172839,0,0,0.06172839506172839,67.77777777777777,0)" xlink:href="#I"/></g><path fill="#3a414a" d="M67-125c0 54 23 88 75 88 28 0 53-7 68-21v-34h-60v-39h108v91C232-14 192 4 140 4 58 4 20-42 15-125 8-236 126-280 215-234c19 10 29 26 37 47l-47 15c-11-23-29-39-63-39-53 1-75 33-75 86" id="ar"/><path fill="#3a414a" d="M135-150c-39-12-60 13-60 57V0H25l-1-190h47c2 13-1 29 3 40 6-28 27-53 61-41v41" id="as"/><path fill="#3a414a" d="M110-194c64 0 96 36 96 99 0 64-35 99-97 99-61 0-95-36-95-99 0-62 34-99 96-99zm-1 164c35 0 45-28 45-65 0-40-10-65-43-65-34 0-45 26-45 65 0 36 10 65 43 65" id="at"/><path fill="#3a414a" d="M85 4C-2 5 27-109 22-190h50c7 57-23 150 33 157 60-5 35-97 40-157h50l1 190h-47c-2-12 1-28-3-38-12 25-28 42-61 42" id="au"/><path fill="#3a414a" d="M135-194c87-1 58 113 63 194h-50c-7-57 23-157-34-157-59 0-34 97-39 157H25l-1-190h47c2 12-1 28 3 38 12-26 28-41 61-42" id="av"/><path fill="#3a414a" d="M88-194c31-1 46 15 58 34l-1-101h50l1 261h-48c-2-10 0-23-3-31C134-8 116 4 84 4 32 4 16-41 15-95c0-56 19-97 73-99zm17 164c33 0 40-30 41-66 1-37-9-64-41-64s-38 30-39 65c0 43 13 65 39 65" id="aw"/><g id="A"><use transform="matrix(0.12345679012345678,0,0,0.12345679012345678,0,0)" xlink:href="#ar"/><use transform="matrix(0.12345679012345678,0,0,0.12345679012345678,34.5679012345679,0)" xlink:href="#as"/><use transform="matrix(0.12345679012345678,0,0,0.12345679012345678,51.85185185185185,0)" xlink:href="#at"/><use transform="matrix(0.12345679012345678,0,0,0.12345679012345678,78.88888888888889,0)" xlink:href="#au"/><use transform="matrix(0.12345679012345678,0,0,0.12345679012345678,105.92592592592592,0)" xlink:href="#av"/><use transform="matrix(0.12345679012345678,0,0,0.12345679012345678,132.96296296296296,0)" xlink:href="#aw"/></g><path fill="#3a414a" d="M169-182c-1-43-94-46-97-3 18 66 151 10 154 114 3 95-165 93-204 36-6-8-10-19-12-30l50-8c3 46 112 56 116 5-17-69-150-10-154-114-4-87 153-88 188-35 5 8 8 18 10 28" id="ax"/><path fill="#3a414a" d="M115-3C79 11 28 4 28-45v-112H4v-33h27l15-45h31v45h36v33H77v99c-1 23 16 31 38 25v30" id="ay"/><path fill="#3a414a" d="M133-34C117-15 103 5 69 4 32 3 11-16 11-54c-1-60 55-63 116-61 1-26-3-47-28-47-18 1-26 9-28 27l-52-2c7-38 36-58 82-57s74 22 75 68l1 82c-1 14 12 18 25 15v27c-30 8-71 5-69-32zm-48 3c29 0 43-24 42-57-32 0-66-3-65 30 0 17 8 27 23 27" id="az"/><path fill="#3a414a" d="M25-224v-37h50v37H25zM25 0v-190h50V0H25" id="aA"/><g id="B"><use transform="matrix(0.12345679012345678,0,0,0.12345679012345678,0,0)" xlink:href="#ax"/><use transform="matrix(0.12345679012345678,0,0,0.12345679012345678,29.629629629629626,0)" xlink:href="#ay"/><use transform="matrix(0.12345679012345678,0,0,0.12345679012345678,44.32098765432099,0)" xlink:href="#az"/><use transform="matrix(0.12345679012345678,0,0,0.12345679012345678,69.01234567901234,0)" xlink:href="#ay"/><use transform="matrix(0.12345679012345678,0,0,0.12345679012345678,83.7037037037037,0)" xlink:href="#aA"/><use transform="matrix(0.12345679012345678,0,0,0.12345679012345678,96.04938271604938,0)" xlink:href="#at"/><use transform="matrix(0.12345679012345678,0,0,0.12345679012345678,123.08641975308642,0)" xlink:href="#av"/></g><path fill="#3a414a" d="M67-125c0 53 21 87 73 88 37 1 54-22 65-47l45 17C233-25 199 4 140 4 58 4 20-42 15-125 8-235 124-281 211-232c18 10 29 29 36 50l-46 12c-8-25-30-41-62-41-52 0-71 34-72 86" id="aB"/><path fill="#3a414a" d="M185-48c-13 30-37 53-82 52C43 2 14-33 14-96s30-98 90-98c62 0 83 45 84 108H66c0 31 8 55 39 56 18 0 30-7 34-22zm-45-69c5-46-57-63-70-21-2 6-4 13-4 21h74" id="aC"/><g id="C"><use transform="matrix(0.12345679012345678,0,0,0.12345679012345678,0,0)" xlink:href="#aB"/><use transform="matrix(0.12345679012345678,0,0,0.12345679012345678,31.975308641975307,0)" xlink:href="#at"/><use transform="matrix(0.12345679012345678,0,0,0.12345679012345678,59.01234567901234,0)" xlink:href="#aw"/><use transform="matrix(0.12345679012345678,0,0,0.12345679012345678,86.04938271604938,0)" xlink:href="#aC"/></g><path fill="#3a414a" d="M76-208v77h127v40H76V0H24v-248h183v40H76" id="aD"/><path fill="#3a414a" d="M25 0v-261h50V0H25" id="aE"/><path fill="#3a414a" d="M231 0h-52l-39-155L100 0H48L-1-190h46L77-45c9-52 24-97 36-145h53l37 145 32-145h46" id="aF"/><g id="D"><use transform="matrix(0.12345679012345678,0,0,0.12345679012345678,0,0)" xlink:href="#aD"/><use transform="matrix(0.12345679012345678,0,0,0.12345679012345678,27.037037037037035,0)" xlink:href="#aE"/><use transform="matrix(0.12345679012345678,0,0,0.12345679012345678,39.382716049382715,0)" xlink:href="#at"/><use transform="matrix(0.12345679012345678,0,0,0.12345679012345678,66.41975308641975,0)" xlink:href="#aF"/></g><path fill="#3a414a" d="M114-157C55-157 80-60 75 0H25v-261h50l-1 109c12-26 28-41 61-42 86-1 58 113 63 194h-50c-7-57 23-157-34-157" id="aG"/><g id="E"><use transform="matrix(0.12345679012345678,0,0,0.12345679012345678,0,0)" xlink:href="#aB"/><use transform="matrix(0.12345679012345678,0,0,0.12345679012345678,31.975308641975307,0)" xlink:href="#aG"/><use transform="matrix(0.12345679012345678,0,0,0.12345679012345678,59.01234567901234,0)" xlink:href="#az"/><use transform="matrix(0.12345679012345678,0,0,0.12345679012345678,83.7037037037037,0)" xlink:href="#as"/><use transform="matrix(0.12345679012345678,0,0,0.12345679012345678,100.98765432098764,0)" xlink:href="#ay"/></g></defs></g></svg>