<svg xmlns="http://www.w3.org/2000/svg" xmlns:xlink="http://www.w3.org/1999/xlink" xmlns:lucid="lucid" width="1720.57" height="1240"><g transform="translate(-85.43307086614169 -20)" lucid:page-tab-id="0_0"><path d="M0 0h1870.87v1322.83H0z" fill="#fff"/><path d="M1035.9 446.26a7.8 7.8 0 0 1 7.53-5.8h116a4.6 4.6 0 0 1 4.46 5.8l-28.92 108.4a7.8 7.8 0 0 1-7.55 5.8h-116a4.6 4.6 0 0 1-4.45-5.8z" stroke="#3a414a" fill="#fff"/><use xlink:href="#a" transform="matrix(1,0,0,1,1010.4330708661416,445.4632555915929) translate(20.542037037037044 45.27777777777778)"/><use xlink:href="#b" transform="matrix(1,0,0,1,1010.4330708661416,445.4632555915929) translate(73.62845679012345 45.27777777777778)"/><use xlink:href="#c" transform="matrix(1,0,0,1,1010.4330708661416,445.4632555915929) translate(42.55438271604938 71.94444444444446)"/><path d="M1235.9 446.26a7.8 7.8 0 0 1 7.53-5.8h116a4.6 4.6 0 0 1 4.46 5.8l-28.92 108.4a7.8 7.8 0 0 1-7.55 5.8h-116a4.6 4.6 0 0 1-4.45-5.8z" stroke="#3a414a" fill="#fff"/><use xlink:href="#d" transform="matrix(1,0,0,1,1210.4330708661416,445.4632555915929) translate(37.43827160493827 46.111111111111114)"/><use xlink:href="#e" transform="matrix(1,0,0,1,1210.4330708661416,445.4632555915929) translate(12.777777777777771 72.77777777777777)"/><path d="M1435.9 446.26a7.8 7.8 0 0 1 7.53-5.8h116a4.6 4.6 0 0 1 4.46 5.8l-28.92 108.4a7.8 7.8 0 0 1-7.55 5.8h-116a4.6 4.6 0 0 1-4.45-5.8z" stroke="#3a414a" fill="#fff"/><use xlink:href="#d" transform="matrix(1,0,0,1,1410.4330708661416,445.4632555915929) translate(40.943271604938275 45.27777777777778)"/><use xlink:href="#f" transform="matrix(1,0,0,1,1410.4330708661416,445.4632555915929) translate(28.418580246913578 71.94444444444446)"/><path d="M1635.9 446.26a7.8 7.8 0 0 1 7.53-5.8h116a4.6 4.6 0 0 1 4.46 5.8l-28.92 108.4a7.8 7.8 0 0 1-7.55 5.8h-116a4.6 4.6 0 0 1-4.45-5.8z" stroke="#3a414a" fill="#fff"/><use xlink:href="#g" transform="matrix(1,0,0,1,1610.4330708661416,445.4632555915929) translate(37.177839506172845 45.27777777777778)"/><use xlink:href="#h" transform="matrix(1,0,0,1,1610.4330708661416,445.4632555915929) translate(34.52969135802469 71.94444444444446)"/><path d="M1520 706a6 6 0 0 1 6-6h108a6 6 0 0 1 6 6v60a12.48 12.48 0 0 1-4.7 9.75l-50.6 40.5a7.5 7.5 0 0 1-9.4 0l-50.6-40.5a12.48 12.48 0 0 1-4.7-9.75z" stroke="#3a414a" fill="#fff"/><use xlink:href="#i" transform="matrix(1,0,0,1,1525,705) translate(12.314814814814824 17.77777777777778)"/><use xlink:href="#j" transform="matrix(1,0,0,1,1525,705) translate(9.598765432098766 44.44444444444444)"/><use xlink:href="#k" transform="matrix(1,0,0,1,1525,705) translate(47.376543209876544 44.44444444444444)"/><use xlink:href="#l" transform="matrix(1,0,0,1,1525,705) translate(26.054382716049382 71.11111111111111)"/><path d="M1305.44 906.46a6 6 0 0 1 6-6h148a6 6 0 0 1 6 6v108a6 6 0 0 1-6 6h-148a6 6 0 0 1-6-6zm16-6v120m-16-104h160" stroke="#3a414a" fill="#fff"/><use xlink:href="#m" transform="matrix(1,0,0,1,1326.435762857786,921.4632555915929) translate(7.64691358024691 50.09027777777778)"/><use xlink:href="#n" transform="matrix(1,0,0,1,1326.435762857786,921.4632555915929) translate(65.05432098765432 50.09027777777778)"/><use xlink:href="#o" transform="matrix(1,0,0,1,1326.435762857786,921.4632555915929) translate(89.74567901234568 50.09027777777778)"/><path d="M600.52 333.44a8.57 8.57 0 0 1 9.83 0l90.17 63.12a4.2 4.2 0 0 1 0 6.88l-90.17 63.12a8.57 8.57 0 0 1-9.83 0l-90.17-63.12a4.2 4.2 0 0 1 0-6.88z" stroke="#3a414a" fill="#fff"/><use xlink:href="#p" transform="matrix(1,0,0,1,510.43307086614163,335) translate(63.58524691358025 35.78777777777778)"/><use xlink:href="#q" transform="matrix(1,0,0,1,510.43307086614163,335) translate(62.90623456790124 62.45444444444445)"/><use xlink:href="#r" transform="matrix(1,0,0,1,510.43307086614163,335) translate(48.12228395061728 89.1211111111111)"/><path d="M426.4 400h65.27" stroke="#3a414a" fill="none"/><path d="M426.4 400.5h-.5v-1h.5z" stroke="#3a414a" stroke-width=".05" fill="#3a414a"/><path d="M506.44 400l-14.27 4.64v-9.28z" stroke="#3a414a" fill="#3a414a"/><path d="M425.43 586a6 6 0 0 1 6-6h128a6 6 0 0 1 6 6v108a6 6 0 0 1-6 6h-128a6 6 0 0 1-6-6z" stroke="#3a414a" fill="#fff"/><use xlink:href="#s" transform="matrix(1,0,0,1,437.4330708661417,592) translate(39.882716049382715 53.77777777777778)"/><path d="M265.43 346a6 6 0 0 1 6-6h148a6 6 0 0 1 6 6v108a6 6 0 0 1-6 6h-148a6 6 0 0 1-6-6z" stroke="#3a414a" fill="#fff"/><path d="M281.43 340v120m128-120v120" stroke="#3a414a" fill="none"/><use xlink:href="#t" transform="matrix(1,0,0,1,290.4330708661417,345) translate(6.327160493827165 19.44444444444445)"/><use xlink:href="#u" transform="matrix(1,0,0,1,290.4330708661417,345) translate(75.3395061728395 19.44444444444445)"/><use xlink:href="#v" transform="matrix(1,0,0,1,290.4330708661417,345) translate(19.876543209876544 46.111111111111114)"/><use xlink:href="#w" transform="matrix(1,0,0,1,290.4330708661417,345) translate(49.44444444444444 46.111111111111114)"/><use xlink:href="#x" transform="matrix(1,0,0,1,290.4330708661417,345) translate(23.58024691358025 72.77777777777779)"/><use xlink:href="#y" transform="matrix(1,0,0,1,290.4330708661417,345) translate(27.25308641975309 99.44444444444446)"/><path d="M535.12 524.55l-33.67.02-.88.07-.84.2-.8.33-.73.45-.65.57-.57.64-.45.74-.33.8-.2.8-.07 33.97h-1l.08-34.08.25-1 .4-.95.52-.87.67-.77.77-.67.88-.52.94-.4 1-.23 1-.08 33.7-.02zm70.8-6.46l-.07 1-.23.98-.4.94-.53.87-.67.77-.78.66-.87.54-.94.4-1 .23-34.7.03v-1l34.57-.03.83-.2.8-.33.73-.45.66-.56.56-.65.45-.73.33-.8.2-.84.07-.88V469.1h1z" stroke="#3a414a" stroke-width=".05" fill="#3a414a"/><path d="M605.43 468.6l.5-.02v.54h-1v-.54z" fill="#3a414a"/><path d="M605.43 468.58l.53-.03v.6h-1.05v-.6zm-.47.52h.95v-.5l-.47.03-.47-.02z" stroke="#3a414a" stroke-width=".05" fill="#3a414a"/><path d="M495.43 577.92l-4.63-14.27h9.27z" fill="#3a414a"/><path d="M495.43 579.54l-5.32-16.4h10.66zm-3.94-15.4l3.93 12.16 3.95-12.15z" stroke="#3a414a" stroke-width=".05" fill="#3a414a"/><use xlink:href="#z" transform="matrix(1,0,0,1,535.124428890833,513.4064787117499) translate(0 14.222222222222223)"/><path d="M719.45 523.57l1 .08 1 .24.93.38.87.53.78.68.66.77.53.87.4.94.23 1 .07 34.1h-1l-.07-33.97-.2-.83-.33-.8-.45-.73-.56-.65-.66-.58-.73-.45-.8-.33-.84-.2-.9-.07-42.16-.03v-1zm-113.52-5.52l.07.88.2.84.33.8.45.74.57.66.65.56.74.45.8.33.8.2 43.1.03v1l-43.2-.03-1.02-.24-.94-.4-.87-.53-.76-.66-.67-.78-.53-.88-.4-.94-.23-1-.07-1v-48.97h1z" stroke="#3a414a" stroke-width=".05" fill="#3a414a"/><path d="M605.43 468.6l.5-.02v.54h-1v-.54z" fill="#3a414a"/><path d="M605.43 468.58l.53-.03v.6h-1.05v-.6zm-.47.52h.95v-.5l-.47.03-.47-.02z" stroke="#3a414a" stroke-width=".05" fill="#3a414a"/><path d="M725.43 577.92l-4.63-14.27h9.27z" fill="#3a414a"/><path d="M725.43 579.54l-5.32-16.4h10.66zm-3.94-15.4l3.93 12.16 3.95-12.15z" stroke="#3a414a" stroke-width=".05" fill="#3a414a"/><use xlink:href="#A" transform="matrix(1,0,0,1,653.6306017303392,513.4064967949919) translate(0 14.222222222222223)"/><path d="M645.43 586a6 6 0 0 1 6-6h148a6 6 0 0 1 6 6v108a6 6 0 0 1-6 6h-148a6 6 0 0 1-6-6z" stroke="#3a414a" fill="#fff"/><use xlink:href="#B" transform="matrix(1,0,0,1,657.4330708661416,592) translate(31.641975308641975 38.77777777777778)"/><use xlink:href="#C" transform="matrix(1,0,0,1,657.4330708661416,592) translate(34.08024691358025 65.44444444444446)"/><path d="M830.43 259.57l1 .25.95.4.87.52.78.66.66.78.53.87.4.94.22.98.08 1-.07 459.02-.24 1-.4.95-.53.87-.67.78-.78.66-.87.53-.94.38-1 .24-1 .08-99-.07-1.02-.25-.94-.4-.87-.52-.76-.66-.67-.78-.53-.87-.4-.94-.23-.98-.07-1v-23.06h1v23.02l.07.88.2.84.33.8.45.73.57.66.65.55.74.45.8.33.8.2 98.87.07.9-.07.83-.2.8-.33.73-.45.66-.56.56-.67.45-.73.33-.8.2-.82.07-458.86-.07-.88-.2-.84-.33-.8-.45-.73-.56-.66-.66-.55-.73-.45-.8-.33-.82-.2-218.85-.07-.88.07-.84.2-.8.33-.73.45-.65.56-.57.67-.45.73-.33.8-.2.82-.07 49.9h-1L605 265l.25-1 .4-.95.52-.87.67-.78.77-.66.88-.53.94-.38 1-.24 1-.08z" stroke="#3a414a" stroke-width=".05" fill="#3a414a"/><path d="M725.93 700.98h-1v-.52h1z" fill="#3a414a"/><path d="M725.96 701h-1.05v-.56h1.06zm-1-.5v.45h.95v-.46z" stroke="#3a414a" stroke-width=".05" fill="#3a414a"/><path d="M605.43 329.77l-4.63-14.26h9.27z" fill="#3a414a"/><path d="M605.43 331.4L600.1 315h10.66zM601.5 316l3.93 12.15 3.95-12.14z" stroke="#3a414a" stroke-width=".05" fill="#3a414a"/><path d="M105.43 205.92a6.8 6.8 0 0 1 5.96-6.74l148.08-18.44a5.3 5.3 0 0 1 5.95 5.26v108a6 6 0 0 1-6 6h-148a6 6 0 0 1-6-6z" stroke="#3a414a" fill="#fff"/><use xlink:href="#t" transform="matrix(1,0,0,1,110.43307086614169,205) translate(8.395061728395063 37.46527777777778)"/><use xlink:href="#q" transform="matrix(1,0,0,1,110.43307086614169,205) translate(77.4074074074074 37.46527777777778)"/><use xlink:href="#D" transform="matrix(1,0,0,1,110.43307086614169,205) translate(34.29012345679012 64.13194444444446)"/><path d="M185.43 300.96V394a6 6 0 0 0 6 6h57.16" stroke="#3a414a" fill="none"/><path d="M185.93 300.98h-1v-.52h1z" stroke="#3a414a" stroke-width=".05" fill="#3a414a"/><path d="M263.35 400l-14.26 4.64v-9.28z" stroke="#3a414a" fill="#3a414a"/><path d="M490.63 823.6a8 8 0 0 1 9.6 0l70.4 52.8a4.5 4.5 0 0 1 0 7.2l-70.4 52.8a8 8 0 0 1-9.6 0l-70.4-52.8a4.5 4.5 0 0 1 0-7.2z" stroke="#3a414a" fill="#fff"/><use xlink:href="#E" transform="matrix(1,0,0,1,420.43307086614163,825) translate(50.80746913580247 45.27777777777778)"/><use xlink:href="#D" transform="matrix(1,0,0,1,420.43307086614163,825) translate(34.29512345679012 71.94444444444446)"/><path d="M495.43 700.96V805.1" stroke="#3a414a" fill="none"/><path d="M495.93 700.98h-1v-.52h1z" stroke="#3a414a" stroke-width=".05" fill="#3a414a"/><path d="M495.43 819.88l-4.63-14.27h9.27z" stroke="#3a414a" fill="#3a414a"/><path d="M320.5 963.12h-1l.04-40.87h1zm96.93-82.62h-91.4l-.9.07-.83.2-.8.33-.73.45-.66.56-.55.67-.45.73-.33.8-.2.82v15.8h-1V885l.25-1 .4-.95.52-.87.66-.78.78-.66.87-.53.94-.38.98-.24 1-.08h91.45z" stroke="#3a414a" stroke-width=".05" fill="#3a414a"/><path d="M417.93 880l.05.5h-.56v-1h.56z" fill="#3a414a"/><path d="M417.96 880l.04.52h-.6v-1.04h.6zm-.52-.48v.96h.5l-.03-.48.05-.48z" stroke="#3a414a" stroke-width=".05" fill="#3a414a"/><path d="M320 977.88l-4.64-14.26h9.28z" fill="#3a414a"/><path d="M320 979.5l-5.32-16.38h10.64zm-3.95-15.38l3.95 12.14 3.95-12.14z" stroke="#3a414a" stroke-width=".05" fill="#3a414a"/><use xlink:href="#F" transform="matrix(1,0,0,1,235.16049382716048,900.9157076986337) translate(0 14.222222222222223)"/><use xlink:href="#G" transform="matrix(1,0,0,1,235.16049382716048,900.9157076986337) translate(68.09876543209877 14.222222222222223)"/><use xlink:href="#H" transform="matrix(1,0,0,1,235.16049382716048,900.9157076986337) translate(110.41975308641976 14.222222222222223)"/><use xlink:href="#I" transform="matrix(1,0,0,1,235.16049382716048,900.9157076986337) translate(140.0493827160494 14.222222222222223)"/><path d="M750.43 875l-.25 1-.4.95-.52.87-.66.78-.78.66-.87.53-.94.38-.98.24-1 .08H573.44v-1h170.54l.88-.07.84-.2.8-.33.73-.45.66-.56.55-.67.45-.73.33-.8.2-.82v-8.98h1zm630.02-695.42l1 .24.94.4.86.52.77.66.67.78.53.87.4.94.23 1 .08 18.6-1 .02-.08-18.5-.2-.82-.33-.8-.45-.73-.56-.66-.65-.55-.74-.45-.8-.33-.83-.2-.88-.07-394.3.07-.82.2-.8.33-.73.45-.66.56-.55.67-.45.73-.33.8-.2.84-.07.88-.07 638.98-.25 1-.4.95-.52.87-.66.78-.78.66-.87.53-.94.38-.98.24-1 .08-218.9.07-.82.2-.8.33-.73.45-.66.56-.55.67-.45.73-.33.8-.2.84-.07.88-.02 8.55h-1l.02-8.6.08-1 .24-.98.4-.95.52-.87.66-.78.78-.66.87-.53.94-.38 1-.25 218.98-.07.88-.07.84-.2.8-.33.73-.45.66-.56.55-.67.45-.73.33-.8.2-.82.07-638.9.08-1 .24-1 .4-.93.52-.87.66-.78.78-.66.87-.53.94-.38 1-.25 394.46-.07z" stroke="#3a414a" stroke-width=".05" fill="#3a414a"/><path d="M573.45 880.5h-.56l.04-.5-.05-.5h.55z" fill="#3a414a"/><path d="M573.47 880.52h-.6l.04-.52-.04-.52h.6zm-.55-1l.04.48-.04.48h.5v-.96z" stroke="#3a414a" stroke-width=".05" fill="#3a414a"/><path d="M1385.44 218.38l-4.64-14.26h9.27z" fill="#3a414a"/><path d="M1385.44 220l-5.33-16.38h10.66zm-3.95-15.38l3.94 12.14 3.94-12.14z" stroke="#3a414a" stroke-width=".05" fill="#3a414a"/><use xlink:href="#J" transform="matrix(1,0,0,1,675.5308641975308,844.567816373152) translate(0 14.222222222222223)"/><use xlink:href="#G" transform="matrix(1,0,0,1,675.5308641975308,844.567816373152) translate(45.38271604938272 14.222222222222223)"/><use xlink:href="#H" transform="matrix(1,0,0,1,675.5308641975308,844.567816373152) translate(87.70370370370371 14.222222222222223)"/><use xlink:href="#K" transform="matrix(1,0,0,1,675.5308641975308,844.567816373152) translate(117.33333333333334 14.222222222222223)"/><path d="M368 980c17.67 0 32 17.9 32 40s-14.33 40-32 40h-96c-17.67 0-32-17.9-32-40s14.33-40 32-40z" stroke="#3a414a" fill="#fff"/><use xlink:href="#t" transform="matrix(1,0,0,1,245,985) translate(25.895061728395063 39.65277777777778)"/><use xlink:href="#L" transform="matrix(1,0,0,1,245,985) translate(94.9074074074074 39.65277777777778)"/><path d="M1305.44 226.46a6 6 0 0 1 6-6h148a6 6 0 0 1 6 6v108a6 6 0 0 1-6 6h-148a6 6 0 0 1-6-6z" stroke="#3a414a" fill="#fff"/><use xlink:href="#M" transform="matrix(1,0,0,1,1317.435762857786,232.46325559159288) translate(36.54938271604938 38.77777777777778)"/><use xlink:href="#N" transform="matrix(1,0,0,1,1317.435762857786,232.46325559159288) translate(6.333333333333343 65.44444444444446)"/><use xlink:href="#O" transform="matrix(1,0,0,1,1317.435762857786,232.46325559159288) translate(82.81481481481481 65.44444444444446)"/><path d="M1385.44 341.43v43.04a6 6 0 0 1-6 6h-288a6 6 0 0 0-6 6v27.15" stroke="#3a414a" fill="none"/><path d="M1385.94 341.44h-1v-.5h1z" stroke="#3a414a" stroke-width=".05" fill="#3a414a"/><path d="M1085.43 438.4l-4.63-14.28h9.27z" stroke="#3a414a" fill="#3a414a"/><path d="M1385.44 341.43v43.04a6 6 0 0 1-6 6h-87.08a6 6 0 0 0-6 6v27.15" stroke="#3a414a" fill="none"/><path d="M1385.94 341.44h-1v-.5h1z" stroke="#3a414a" stroke-width=".05" fill="#3a414a"/><path d="M1286.36 438.4l-4.64-14.28h9.27z" stroke="#3a414a" fill="#3a414a"/><path d="M1385.44 341.43v43.04a6 6 0 0 0 6 6h87.08a6 6 0 0 1 6 6v27.15" stroke="#3a414a" fill="none"/><path d="M1385.94 341.44h-1v-.5h1z" stroke="#3a414a" stroke-width=".05" fill="#3a414a"/><path d="M1484.52 438.4l-4.64-14.28h9.27z" stroke="#3a414a" fill="#3a414a"/><path d="M1385.44 341.43v43.04a6 6 0 0 0 6 6h288a6 6 0 0 1 6 6v27.15" stroke="#3a414a" fill="none"/><path d="M1385.94 341.44h-1v-.5h1z" stroke="#3a414a" stroke-width=".05" fill="#3a414a"/><path d="M1685.43 438.4l-4.63-14.28h9.27z" stroke="#3a414a" fill="#3a414a"/><path d="M1288.92 665.12a3.1 3.1 0 0 1 2.52-4.9h188a3.1 3.1 0 0 1 2.52 4.9l-93.04 130.7a4.27 4.27 0 0 1-6.96 0z" stroke="#3a414a" fill="#fff"/><use xlink:href="#m" transform="matrix(1,0,0,1,1290.435762857786,665.2316277957964) translate(57.04203703703703 50.52777777777778)"/><use xlink:href="#P" transform="matrix(1,0,0,1,1290.435762857786,665.2316277957964) translate(114.44944444444445 50.52777777777778)"/><use xlink:href="#Q" transform="matrix(1,0,0,1,1290.435762857786,665.2316277957964) translate(65.62228395061729 77.19444444444446)"/><path d="M1085.43 561.42V614a6 6 0 0 0 6 6h215.74a6 6 0 0 1 6 6v17.4" stroke="#3a414a" fill="none"/><path d="M1085.93 561.43h-1v-.5h1z" stroke="#3a414a" stroke-width=".05" fill="#3a414a"/><path d="M1313.17 658.18l-4.64-14.27h9.27z" stroke="#3a414a" fill="#3a414a"/><path d="M1285.43 561.42v42.93a6 6 0 0 0 6 6h66.05a6 6 0 0 1 6 6v27.04" stroke="#3a414a" fill="none"/><path d="M1285.93 561.43h-1v-.5h1z" stroke="#3a414a" stroke-width=".05" fill="#3a414a"/><path d="M1363.48 658.16l-4.63-14.27h9.27z" stroke="#3a414a" fill="#3a414a"/><path d="M1485.43 561.42v42.92a6 6 0 0 1-6 6h-66.6a6 6 0 0 0-6 6v27.04" stroke="#3a414a" fill="none"/><path d="M1485.93 561.43h-1v-.5h1z" stroke="#3a414a" stroke-width=".05" fill="#3a414a"/><path d="M1406.83 658.14l-4.64-14.26h9.26z" stroke="#3a414a" fill="#3a414a"/><path d="M1685.43 561.42V614a6 6 0 0 1-6 6h-227a6 6 0 0 0-6 6v17.36" stroke="#3a414a" fill="none"/><path d="M1685.93 561.43h-1v-.5h1z" stroke="#3a414a" stroke-width=".05" fill="#3a414a"/><path d="M1446.43 658.13l-4.64-14.27h9.26z" stroke="#3a414a" fill="#3a414a"/><path d="M1380.8 1083.8a7.3 7.3 0 0 1 9.27 0l88 72.4a4.93 4.93 0 0 1 0 7.6l-88 72.4a7.3 7.3 0 0 1-9.27 0l-88-72.4a4.93 4.93 0 0 1 0-7.6z" stroke="#3a414a" fill="#fff"/><g><use xlink:href="#t" transform="matrix(1,0,0,1,1293.1536442866789,1085) translate(25.40006172839507 69.34027777777777)"/><use xlink:href="#q" transform="matrix(1,0,0,1,1293.1536442866789,1085) translate(94.41240740740741 69.34027777777777)"/><use xlink:href="#D" transform="matrix(1,0,0,1,1293.1536442866789,1085) translate(51.795123456790115 96.00694444444446)"/></g><path d="M1385.44 798.6v85.02" stroke="#3a414a" fill="none"/><path d="M1385.44 798.1l.5-.04v.56h-1v-.56z" stroke="#3a414a" stroke-width=".05" fill="#3a414a"/><path d="M1385.44 898.38l-4.64-14.26h9.27z" stroke="#3a414a" fill="#3a414a"/><path d="M1385.44 798.6v53.8a6 6 0 0 0 6 6H1574a6 6 0 0 0 6-6v-17.62" stroke="#3a414a" fill="none"/><path d="M1385.44 798.1l.5-.04v.56h-1v-.56z" stroke="#3a414a" stroke-width=".05" fill="#3a414a"/><path d="M1580 820l4.64 14.28h-9.28z" stroke="#3a414a" fill="#3a414a"/><path d="M1385.44 1021.43v43.84" stroke="#3a414a" fill="none"/><path d="M1385.94 1021.44h-1v-.5h1z" stroke="#3a414a" stroke-width=".05" fill="#3a414a"/><path d="M1385.44 1080.03l-4.64-14.26h9.27z" stroke="#3a414a" fill="#3a414a"/><path d="M1250.57 1154.88l.2.82.33.8.45.73.56.66.67.55.73.45.8.33.84.2.88.07H1290v1h-34.02l-1-.08-1-.24-.93-.4-.87-.52-.78-.66-.66-.78-.53-.87-.38-.94-.25-1-.04-37.3h1zM885 290.96l1 .25.95.4.87.53.78.66.66.77.53.87.38.94.24 1 .08 1 .07 777.5.2.82.33.8.45.73.56.66.67.55.73.45.8.33.84.2.88.07 348.98.07 1 .25.95.4.87.52.78.66.66.78.53.87.38.94.24.98.08 1v10.4h-1V1086l-.07-.88-.2-.84-.33-.8-.45-.73-.56-.66-.67-.55-.73-.45-.8-.33-.82-.2-348.9-.07-1-.08-1-.24-.93-.4-.87-.52-.78-.66-.66-.78-.53-.87-.38-.94-.25-1-.07-777.6-.07-.87-.2-.84-.33-.8-.45-.74-.56-.66-.67-.56-.73-.45-.8-.34-.82-.2-533.43-.07-.88.06-.84.2-.8.33-.73.44-.65.56-.57.66-.45.73-.33.8-.2.8-.07 26.65h-1l.08-26.76.25-1.02.4-.94.52-.87.67-.78.77-.67.88-.53.94-.4 1-.23 1-.08z" stroke="#3a414a" stroke-width=".05" fill="#3a414a"/><path d="M1290.5 1160l.03.5h-.56v-1h.56z" fill="#3a414a"/><path d="M1290.5 1160l.06.53h-.6v-1.06h.6zm-.5-.47v.94h.5l-.04-.47.04-.47z" stroke="#3a414a" stroke-width=".05" fill="#3a414a"/><path d="M345.43 337.92l-4.63-14.27h9.27z" fill="#3a414a"/><path d="M345.43 339.54l-5.32-16.4h10.66zm-3.94-15.4l3.93 12.16 3.95-12.15z" stroke="#3a414a" stroke-width=".05" fill="#3a414a"/><g><use xlink:href="#z" transform="matrix(1,0,0,1,1234.6913580246915,1096.373151153432) translate(0 14.222222222222223)"/></g><path d="M1501.8 1155l-.23 1-.4.95-.52.87-.67.78-.77.66-.86.53-.95.38-1 .24-1 .08h-14.5v-1h14.47l.88-.07.83-.2.8-.33.74-.45.65-.56.56-.67.45-.73.34-.8.2-.82v-20.74h1zM1795 179.57l1 .25.95.4.87.52.78.66.66.78.53.87.38.94.24.98.08 1-.07 889.02-.25 1-.4.95-.52.87-.66.78-.78.66-.87.53-.94.38-.98.24-1 .08-287.5.07-.83.2-.8.33-.75.45-.65.56-.56.67-.45.73-.34.8-.2.84-.07.88-.04 26.78h-1l.03-26.82.06-1 .24-1 .4-.93.53-.87.66-.78.76-.66.87-.53.95-.38 1-.25 287.6-.07.88-.07.84-.2.8-.33.73-.45.66-.56.55-.67.45-.73.33-.8.2-.82.07-888.86-.07-.88-.2-.84-.33-.8-.45-.73-.56-.66-.67-.55-.73-.45-.8-.33-.82-.2-403.42-.07-.88.07-.84.2-.8.33-.74.45-.65.56-.56.67-.46.73-.33.8-.2.82-.06 18.5h-1L1385 185l.25-1 .4-.95.53-.87.66-.78.77-.66.88-.53.95-.38 1-.24 1-.08z" stroke="#3a414a" stroke-width=".05" fill="#3a414a"/><path d="M1480.9 1160.5h-.56l.05-.5-.06-.5h.56z" fill="#3a414a"/><path d="M1480.92 1160.53h-.6l.04-.53-.05-.53h.62zm-.55-1l.04.47-.03.47h.5v-.94z" stroke="#3a414a" stroke-width=".05" fill="#3a414a"/><path d="M1385.44 218.38l-4.64-14.26h9.27z" fill="#3a414a"/><path d="M1385.44 220l-5.33-16.38h10.66zm-3.95-15.38l3.94 12.14 3.94-12.14z" stroke="#3a414a" stroke-width=".05" fill="#3a414a"/><g><use xlink:href="#A" transform="matrix(1,0,0,1,1489.5832018149838,1112.8038271267353) translate(0 14.222222222222223)"/></g><path d="M662.72 46a6 6 0 0 1 6-6h533.43a6 6 0 0 1 6 6v108a6 6 0 0 1-6 6H668.72a6 6 0 0 1-6-6z" stroke="#000" stroke-opacity="0" fill="#fff" fill-opacity="0"/><g><use xlink:href="#R" transform="matrix(1,0,0,1,667.7165354330708,45) translate(9.296296296296305 63.05555555555556)"/><use xlink:href="#S" transform="matrix(1,0,0,1,667.7165354330708,45) translate(174.60493827160494 63.05555555555556)"/><use xlink:href="#T" transform="matrix(1,0,0,1,667.7165354330708,45) translate(297.69135802469134 63.05555555555556)"/><use xlink:href="#U" transform="matrix(1,0,0,1,667.7165354330708,45) translate(411.02469135802465 63.05555555555556)"/></g><defs><path fill="#3a414a" d="M143 4C61 4 22-44 18-125c-5-107 100-154 193-111 17 8 29 25 37 43l-32 9c-13-25-37-40-76-40-61 0-88 39-88 99 0 61 29 100 91 101 35 0 62-11 79-27v-45h-74v-28h105v86C228-13 192 4 143 4" id="V"/><path fill="#3a414a" d="M30-248c87 1 191-15 191 75 0 78-77 80-158 76V0H30v-248zm33 125c57 0 124 11 124-50 0-59-68-47-124-48v98" id="W"/><path fill="#3a414a" d="M185-189c-5-48-123-54-124 2 14 75 158 14 163 119 3 78-121 87-175 55-17-10-28-26-33-46l33-7c5 56 141 63 141-1 0-78-155-14-162-118-5-82 145-84 179-34 5 7 8 16 11 25" id="X"/><g id="a"><use transform="matrix(0.06172839506172839,0,0,0.06172839506172839,0,0)" xlink:href="#V"/><use transform="matrix(0.06172839506172839,0,0,0.06172839506172839,17.28395061728395,0)" xlink:href="#W"/><use transform="matrix(0.06172839506172839,0,0,0.06172839506172839,32.09876543209876,0)" xlink:href="#X"/></g><path fill="#3a414a" d="M190 0L58-211 59 0H30v-248h39L202-35l-2-213h31V0h-41" id="Y"/><path fill="#3a414a" d="M30 0v-248h187v28H63v79h144v27H63v87h162V0H30" id="Z"/><path fill="#3a414a" d="M240 0l2-218c-23 76-54 145-80 218h-23L58-218 59 0H30v-248h44l77 211c21-75 51-140 76-211h43V0h-30" id="aa"/><path fill="#3a414a" d="M205 0l-28-72H64L36 0H1l101-248h38L239 0h-34zm-38-99l-47-123c-12 45-31 82-46 123h93" id="ab"/><g id="b"><use transform="matrix(0.06172839506172839,0,0,0.06172839506172839,0,0)" xlink:href="#Y"/><use transform="matrix(0.06172839506172839,0,0,0.06172839506172839,15.987654320987653,0)" xlink:href="#Z"/><use transform="matrix(0.06172839506172839,0,0,0.06172839506172839,30.80246913580247,0)" xlink:href="#aa"/><use transform="matrix(0.06172839506172839,0,0,0.06172839506172839,49.25925925925925,0)" xlink:href="#ab"/></g><path fill="#3a414a" d="M59-47c-2 24 18 29 38 22v24C64 9 27 4 27-40v-127H5v-23h24l9-43h21v43h35v23H59v120" id="ac"/><path fill="#3a414a" d="M114-163C36-179 61-72 57 0H25l-1-190h30c1 12-1 29 2 39 6-27 23-49 58-41v29" id="ad"/><path fill="#3a414a" d="M24-231v-30h32v30H24zM24 0v-190h32V0H24" id="ae"/><path fill="#3a414a" d="M117-194c89-4 53 116 60 194h-32v-121c0-31-8-49-39-48C34-167 62-67 57 0H25l-1-190h30c1 10-1 24 2 32 11-22 29-35 61-36" id="af"/><path fill="#3a414a" d="M177-190C167-65 218 103 67 71c-23-6-38-20-44-43l32-5c15 47 100 32 89-28v-30C133-14 115 1 83 1 29 1 15-40 15-95c0-56 16-97 71-98 29-1 48 16 59 35 1-10 0-23 2-32h30zM94-22c36 0 50-32 50-73 0-42-14-75-50-75-39 0-46 34-46 75s6 73 46 73" id="ag"/><g id="c"><use transform="matrix(0.06172839506172839,0,0,0.06172839506172839,0,0)" xlink:href="#X"/><use transform="matrix(0.06172839506172839,0,0,0.06172839506172839,14.814814814814813,0)" xlink:href="#ac"/><use transform="matrix(0.06172839506172839,0,0,0.06172839506172839,20.98765432098765,0)" xlink:href="#ad"/><use transform="matrix(0.06172839506172839,0,0,0.06172839506172839,28.33333333333333,0)" xlink:href="#ae"/><use transform="matrix(0.06172839506172839,0,0,0.06172839506172839,33.20987654320987,0)" xlink:href="#af"/><use transform="matrix(0.06172839506172839,0,0,0.06172839506172839,45.55555555555555,0)" xlink:href="#ag"/></g><path fill="#3a414a" d="M197 0v-115H63V0H30v-248h33v105h134v-105h34V0h-34" id="ah"/><path fill="#3a414a" d="M127-220V0H93v-220H8v-28h204v28h-85" id="ai"/><path fill="#3a414a" d="M16-82v-28h88v28H16" id="aj"/><path fill="#3a414a" d="M126-127c33 6 58 20 58 59 0 88-139 92-164 29-3-8-5-16-6-25l32-3c6 27 21 44 54 44 32 0 52-15 52-46 0-38-36-46-79-43v-28c39 1 72-4 72-42 0-27-17-43-46-43-28 0-47 15-49 41l-32-3c6-42 35-63 81-64 48-1 79 21 79 65 0 36-21 52-52 59" id="ak"/><path fill="#3a414a" d="M101-251c68 0 85 55 85 127S166 4 100 4C33 4 14-52 14-124c0-73 17-127 87-127zm-1 229c47 0 54-49 54-102s-4-102-53-102c-51 0-55 48-55 102 0 53 5 102 54 102" id="al"/><g id="d"><use transform="matrix(0.06172839506172839,0,0,0.06172839506172839,0,0)" xlink:href="#X"/><use transform="matrix(0.06172839506172839,0,0,0.06172839506172839,14.814814814814813,0)" xlink:href="#ah"/><use transform="matrix(0.06172839506172839,0,0,0.06172839506172839,30.80246913580247,0)" xlink:href="#ai"/><use transform="matrix(0.06172839506172839,0,0,0.06172839506172839,43.08641975308642,0)" xlink:href="#aj"/><use transform="matrix(0.06172839506172839,0,0,0.06172839506172839,50.432098765432094,0)" xlink:href="#ak"/><use transform="matrix(0.06172839506172839,0,0,0.06172839506172839,62.77777777777777,0)" xlink:href="#al"/></g><path fill="#3a414a" d="M100-194c63 0 86 42 84 106H49c0 40 14 67 53 68 26 1 43-12 49-29l28 8c-11 28-37 45-77 45C44 4 14-33 15-96c1-61 26-98 85-98zm52 81c6-60-76-77-97-28-3 7-6 17-6 28h103" id="am"/><path fill="#3a414a" d="M210-169c-67 3-38 105-44 169h-31v-121c0-29-5-50-35-48C34-165 62-65 56 0H25l-1-190h30c1 10-1 24 2 32 10-44 99-50 107 0 11-21 27-35 58-36 85-2 47 119 55 194h-31v-121c0-29-5-49-35-48" id="an"/><path fill="#3a414a" d="M115-194c55 1 70 41 70 98S169 2 115 4C84 4 66-9 55-30l1 105H24l-1-265h31l2 30c10-21 28-34 59-34zm-8 174c40 0 45-34 45-75s-6-73-45-74c-42 0-51 32-51 76 0 43 10 73 51 73" id="ao"/><path fill="#3a414a" d="M141-36C126-15 110 5 73 4 37 3 15-17 15-53c-1-64 63-63 125-63 3-35-9-54-41-54-24 1-41 7-42 31l-33-3c5-37 33-52 76-52 45 0 72 20 72 64v82c-1 20 7 32 28 27v20c-31 9-61-2-59-35zM48-53c0 20 12 33 32 33 41-3 63-29 60-74-43 2-92-5-92 41" id="ap"/><path fill="#3a414a" d="M84 4C-5 8 30-112 23-190h32v120c0 31 7 50 39 49 72-2 45-101 50-169h31l1 190h-30c-1-10 1-25-2-33-11 22-28 36-60 37" id="aq"/><g id="e"><use transform="matrix(0.06172839506172839,0,0,0.06172839506172839,0,0)" xlink:href="#ai"/><use transform="matrix(0.06172839506172839,0,0,0.06172839506172839,11.049382716049381,0)" xlink:href="#am"/><use transform="matrix(0.06172839506172839,0,0,0.06172839506172839,23.39506172839506,0)" xlink:href="#an"/><use transform="matrix(0.06172839506172839,0,0,0.06172839506172839,41.85185185185185,0)" xlink:href="#ao"/><use transform="matrix(0.06172839506172839,0,0,0.06172839506172839,54.197530864197525,0)" xlink:href="#am"/><use transform="matrix(0.06172839506172839,0,0,0.06172839506172839,66.5432098765432,0)" xlink:href="#ad"/><use transform="matrix(0.06172839506172839,0,0,0.06172839506172839,73.88888888888889,0)" xlink:href="#ap"/><use transform="matrix(0.06172839506172839,0,0,0.06172839506172839,86.23456790123457,0)" xlink:href="#ac"/><use transform="matrix(0.06172839506172839,0,0,0.06172839506172839,92.4074074074074,0)" xlink:href="#aq"/><use transform="matrix(0.06172839506172839,0,0,0.06172839506172839,104.75308641975309,0)" xlink:href="#ad"/><use transform="matrix(0.06172839506172839,0,0,0.06172839506172839,112.09876543209877,0)" xlink:href="#am"/></g><path fill="#3a414a" d="M85-194c31 0 48 13 60 33l-1-100h32l1 261h-30c-2-10 0-23-3-31C134-8 116 4 85 4 32 4 16-35 15-94c0-66 23-100 70-100zm9 24c-40 0-46 34-46 75 0 40 6 74 45 74 42 0 51-32 51-76 0-42-9-74-50-73" id="ar"/><path fill="#3a414a" d="M179-190L93 31C79 59 56 82 12 73V49c39 6 53-20 64-50L1-190h34L92-34l54-156h33" id="as"/><g id="f"><use transform="matrix(0.06172839506172839,0,0,0.06172839506172839,0,0)" xlink:href="#ah"/><use transform="matrix(0.06172839506172839,0,0,0.06172839506172839,15.987654320987653,0)" xlink:href="#aq"/><use transform="matrix(0.06172839506172839,0,0,0.06172839506172839,28.333333333333332,0)" xlink:href="#an"/><use transform="matrix(0.06172839506172839,0,0,0.06172839506172839,46.79012345679012,0)" xlink:href="#ae"/><use transform="matrix(0.06172839506172839,0,0,0.06172839506172839,51.666666666666664,0)" xlink:href="#ar"/><use transform="matrix(0.06172839506172839,0,0,0.06172839506172839,64.01234567901234,0)" xlink:href="#ae"/><use transform="matrix(0.06172839506172839,0,0,0.06172839506172839,68.88888888888889,0)" xlink:href="#ac"/><use transform="matrix(0.06172839506172839,0,0,0.06172839506172839,75.06172839506172,0)" xlink:href="#as"/></g><path fill="#3a414a" d="M54-142c48-35 137-8 131 61C196 18 31 33 14-55l32-4c7 23 22 37 52 37 35-1 51-22 54-58 4-55-73-65-99-34H22l8-134h141v27H59" id="at"/><path fill="#3a414a" d="M110-160c48 1 74 30 74 79 0 53-28 85-80 85-65 0-83-55-86-122-5-90 50-162 133-122 14 7 22 21 27 39l-31 6c-5-40-67-38-82-6-9 19-15 44-15 74 11-20 30-34 60-33zm-7 138c34 0 49-23 49-58s-16-56-50-56c-29 0-50 16-49 49 1 36 15 65 50 65" id="au"/><path fill="#3a414a" d="M64 0c3-98 48-159 88-221H18v-27h164v26C143-157 98-101 97 0H64" id="av"/><g id="g"><use transform="matrix(0.06172839506172839,0,0,0.06172839506172839,0,0)" xlink:href="#aa"/><use transform="matrix(0.06172839506172839,0,0,0.06172839506172839,18.456790123456788,0)" xlink:href="#X"/><use transform="matrix(0.06172839506172839,0,0,0.06172839506172839,33.2716049382716,0)" xlink:href="#at"/><use transform="matrix(0.06172839506172839,0,0,0.06172839506172839,45.61728395061728,0)" xlink:href="#au"/><use transform="matrix(0.06172839506172839,0,0,0.06172839506172839,57.962962962962955,0)" xlink:href="#ak"/><use transform="matrix(0.06172839506172839,0,0,0.06172839506172839,70.30864197530863,0)" xlink:href="#av"/></g><path fill="#3a414a" d="M24 0v-261h32V0H24" id="aw"/><g id="h"><use transform="matrix(0.06172839506172839,0,0,0.06172839506172839,0,0)" xlink:href="#ab"/><use transform="matrix(0.06172839506172839,0,0,0.06172839506172839,14.814814814814813,0)" xlink:href="#aw"/><use transform="matrix(0.06172839506172839,0,0,0.06172839506172839,19.691358024691354,0)" xlink:href="#ac"/><use transform="matrix(0.06172839506172839,0,0,0.06172839506172839,25.864197530864192,0)" xlink:href="#ae"/><use transform="matrix(0.06172839506172839,0,0,0.06172839506172839,30.740740740740733,0)" xlink:href="#ac"/><use transform="matrix(0.06172839506172839,0,0,0.06172839506172839,36.913580246913575,0)" xlink:href="#aq"/><use transform="matrix(0.06172839506172839,0,0,0.06172839506172839,49.25925925925925,0)" xlink:href="#ar"/><use transform="matrix(0.06172839506172839,0,0,0.06172839506172839,61.60493827160493,0)" xlink:href="#am"/></g><path fill="#3a414a" d="M135-143c-3-34-86-38-87 0 15 53 115 12 119 90S17 21 10-45l28-5c4 36 97 45 98 0-10-56-113-15-118-90-4-57 82-63 122-42 12 7 21 19 24 35" id="ax"/><g id="i"><use transform="matrix(0.06172839506172839,0,0,0.06172839506172839,0,0)" xlink:href="#ai"/><use transform="matrix(0.06172839506172839,0,0,0.06172839506172839,12.716049382716047,0)" xlink:href="#ad"/><use transform="matrix(0.06172839506172839,0,0,0.06172839506172839,20.061728395061728,0)" xlink:href="#ap"/><use transform="matrix(0.06172839506172839,0,0,0.06172839506172839,32.407407407407405,0)" xlink:href="#af"/><use transform="matrix(0.06172839506172839,0,0,0.06172839506172839,44.75308641975308,0)" xlink:href="#ax"/><use transform="matrix(0.06172839506172839,0,0,0.06172839506172839,55.86419753086419,0)" xlink:href="#an"/><use transform="matrix(0.06172839506172839,0,0,0.06172839506172839,74.32098765432097,0)" xlink:href="#ae"/><use transform="matrix(0.06172839506172839,0,0,0.06172839506172839,79.19753086419752,0)" xlink:href="#ac"/></g><path fill="#3a414a" d="M137 0h-34L2-248h35l83 218 83-218h36" id="ay"/><g id="j"><use transform="matrix(0.06172839506172839,0,0,0.06172839506172839,0,0)" xlink:href="#ay"/><use transform="matrix(0.06172839506172839,0,0,0.06172839506172839,14.382716049382715,0)" xlink:href="#ae"/><use transform="matrix(0.06172839506172839,0,0,0.06172839506172839,19.25925925925926,0)" xlink:href="#ap"/></g><path fill="#3a414a" d="M30 0v-248h33v221h125V0H30" id="az"/><path fill="#3a414a" d="M100-194c62-1 85 37 85 99 1 63-27 99-86 99S16-35 15-95c0-66 28-99 85-99zM99-20c44 1 53-31 53-75 0-43-8-75-51-75s-53 32-53 75 10 74 51 75" id="aA"/><path fill="#3a414a" d="M233-177c-1 41-23 64-60 70L243 0h-38l-65-103H63V0H30v-248c88 3 205-21 203 71zM63-129c60-2 137 13 137-47 0-61-80-42-137-45v92" id="aB"/><g id="k"><use transform="matrix(0.06172839506172839,0,0,0.06172839506172839,0,0)" xlink:href="#az"/><use transform="matrix(0.06172839506172839,0,0,0.06172839506172839,12.345679012345679,0)" xlink:href="#aA"/><use transform="matrix(0.06172839506172839,0,0,0.06172839506172839,24.691358024691358,0)" xlink:href="#aB"/><use transform="matrix(0.06172839506172839,0,0,0.06172839506172839,40.67901234567901,0)" xlink:href="#ap"/></g><g id="l"><use transform="matrix(0.06172839506172839,0,0,0.06172839506172839,0,0)" xlink:href="#aB"/><use transform="matrix(0.06172839506172839,0,0,0.06172839506172839,15.987654320987653,0)" xlink:href="#ap"/><use transform="matrix(0.06172839506172839,0,0,0.06172839506172839,28.333333333333332,0)" xlink:href="#ar"/><use transform="matrix(0.06172839506172839,0,0,0.06172839506172839,40.67901234567901,0)" xlink:href="#ae"/><use transform="matrix(0.06172839506172839,0,0,0.06172839506172839,45.55555555555556,0)" xlink:href="#aA"/></g><path fill="#3a414a" d="M266 0h-40l-56-210L115 0H75L2-248h35L96-30l15-64 43-154h32l59 218 59-218h35" id="aC"/><g id="m"><use transform="matrix(0.06172839506172839,0,0,0.06172839506172839,0,0)" xlink:href="#aC"/><use transform="matrix(0.06172839506172839,0,0,0.06172839506172839,20.493827160493826,0)" xlink:href="#ad"/><use transform="matrix(0.06172839506172839,0,0,0.06172839506172839,27.839506172839506,0)" xlink:href="#ae"/><use transform="matrix(0.06172839506172839,0,0,0.06172839506172839,32.71604938271605,0)" xlink:href="#ac"/><use transform="matrix(0.06172839506172839,0,0,0.06172839506172839,38.88888888888889,0)" xlink:href="#am"/></g><g id="n"><use transform="matrix(0.06172839506172839,0,0,0.06172839506172839,0,0)" xlink:href="#ac"/><use transform="matrix(0.06172839506172839,0,0,0.06172839506172839,6.172839506172839,0)" xlink:href="#aA"/></g><path fill="#202122" d="M101-21c69 0 42-103 47-169h32l1 190h-29c-2-10 0-24-3-33-7 37-74 51-93 15v87H24v-259h32c7 65-25 169 45 169" id="aD"/><path fill="#202122" d="M185-189c-5-48-123-54-124 2 14 75 158 14 163 119 3 78-121 87-175 55-17-10-28-26-33-46l33-7c5 56 141 63 141-1 0-78-155-14-162-118-5-82 145-84 179-34 5 7 8 16 11 25" id="aE"/><path fill="#202122" d="M30-248c118-7 216 8 213 122C240-48 200 0 122 0H30v-248zM63-27c89 8 146-16 146-99s-60-101-146-95v194" id="aF"/><g id="o"><use transform="matrix(0.05185185185185186,0,0,0.05185185185185186,0,0)" xlink:href="#aD"/><use transform="matrix(0.05185185185185186,0,0,0.05185185185185186,10.733333333333334,0)" xlink:href="#aE"/><use transform="matrix(0.05185185185185186,0,0,0.05185185185185186,23.17777777777778,0)" xlink:href="#aF"/></g><path fill="#3a414a" d="M206 0h-36l-40-164L89 0H53L-1-190h32L70-26l43-164h34l41 164 42-164h31" id="aG"/><g id="p"><use transform="matrix(0.06172839506172839,0,0,0.06172839506172839,0,0)" xlink:href="#W"/><use transform="matrix(0.06172839506172839,0,0,0.06172839506172839,14.814814814814813,0)" xlink:href="#aA"/><use transform="matrix(0.06172839506172839,0,0,0.06172839506172839,27.160493827160494,0)" xlink:href="#aG"/><use transform="matrix(0.06172839506172839,0,0,0.06172839506172839,43.148148148148145,0)" xlink:href="#am"/><use transform="matrix(0.06172839506172839,0,0,0.06172839506172839,55.49382716049382,0)" xlink:href="#ad"/></g><path fill="#3a414a" d="M160-131c35 5 61 23 61 61C221 17 115-2 30 0v-248c76 3 177-17 177 60 0 33-19 50-47 57zm-97-11c50-1 110 9 110-42 0-47-63-36-110-37v79zm0 115c55-2 124 14 124-45 0-56-70-42-124-44v89" id="aH"/><g id="q"><use transform="matrix(0.06172839506172839,0,0,0.06172839506172839,0,0)" xlink:href="#aH"/><use transform="matrix(0.06172839506172839,0,0,0.06172839506172839,14.814814814814813,0)" xlink:href="#aq"/><use transform="matrix(0.06172839506172839,0,0,0.06172839506172839,27.160493827160494,0)" xlink:href="#ac"/><use transform="matrix(0.06172839506172839,0,0,0.06172839506172839,33.333333333333336,0)" xlink:href="#ac"/><use transform="matrix(0.06172839506172839,0,0,0.06172839506172839,39.50617283950618,0)" xlink:href="#aA"/><use transform="matrix(0.06172839506172839,0,0,0.06172839506172839,51.851851851851855,0)" xlink:href="#af"/></g><path fill="#3a414a" d="M103-251c84 0 111 97 45 133-19 10-37 24-39 52H78c0-63 77-55 77-114 0-30-21-42-52-43-32 0-53 17-56 46l-32-2c7-45 34-72 88-72zM77 0v-35h34V0H77" id="aI"/><g id="r"><use transform="matrix(0.06172839506172839,0,0,0.06172839506172839,0,0)" xlink:href="#W"/><use transform="matrix(0.06172839506172839,0,0,0.06172839506172839,14.814814814814813,0)" xlink:href="#ad"/><use transform="matrix(0.06172839506172839,0,0,0.06172839506172839,22.160493827160494,0)" xlink:href="#am"/><use transform="matrix(0.06172839506172839,0,0,0.06172839506172839,34.50617283950617,0)" xlink:href="#ax"/><use transform="matrix(0.06172839506172839,0,0,0.06172839506172839,45.61728395061728,0)" xlink:href="#ax"/><use transform="matrix(0.06172839506172839,0,0,0.06172839506172839,56.72839506172839,0)" xlink:href="#am"/><use transform="matrix(0.06172839506172839,0,0,0.06172839506172839,69.07407407407408,0)" xlink:href="#ar"/><use transform="matrix(0.06172839506172839,0,0,0.06172839506172839,81.41975308641976,0)" xlink:href="#aI"/></g><path fill="#3a414a" d="M137-103V0h-34v-103L8-248h37l75 118 75-118h37" id="aJ"/><g id="s"><use transform="matrix(0.06172839506172839,0,0,0.06172839506172839,0,0)" xlink:href="#aJ"/><use transform="matrix(0.06172839506172839,0,0,0.06172839506172839,12.777777777777777,0)" xlink:href="#am"/><use transform="matrix(0.06172839506172839,0,0,0.06172839506172839,25.123456790123456,0)" xlink:href="#ax"/></g><g id="t"><use transform="matrix(0.06172839506172839,0,0,0.06172839506172839,0,0)" xlink:href="#W"/><use transform="matrix(0.06172839506172839,0,0,0.06172839506172839,14.814814814814813,0)" xlink:href="#aA"/><use transform="matrix(0.06172839506172839,0,0,0.06172839506172839,27.160493827160494,0)" xlink:href="#aG"/><use transform="matrix(0.06172839506172839,0,0,0.06172839506172839,43.148148148148145,0)" xlink:href="#am"/><use transform="matrix(0.06172839506172839,0,0,0.06172839506172839,55.49382716049382,0)" xlink:href="#ad"/></g><path fill="#3a414a" d="M232-93c-1 65-40 97-104 97C67 4 28-28 28-90v-158h33c8 89-33 224 67 224 102 0 64-133 71-224h33v155" id="aK"/><g id="u"><use transform="matrix(0.06172839506172839,0,0,0.06172839506172839,0,0)" xlink:href="#aK"/><use transform="matrix(0.06172839506172839,0,0,0.06172839506172839,15.987654320987653,0)" xlink:href="#ao"/></g><g id="v"><use transform="matrix(0.06172839506172839,0,0,0.06172839506172839,0,0)" xlink:href="#ai"/><use transform="matrix(0.06172839506172839,0,0,0.06172839506172839,11.049382716049381,0)" xlink:href="#aA"/></g><g id="w"><use transform="matrix(0.06172839506172839,0,0,0.06172839506172839,0,0)" xlink:href="#az"/><use transform="matrix(0.06172839506172839,0,0,0.06172839506172839,12.345679012345679,0)" xlink:href="#aA"/><use transform="matrix(0.06172839506172839,0,0,0.06172839506172839,24.691358024691358,0)" xlink:href="#aG"/></g><g id="x"><use transform="matrix(0.06172839506172839,0,0,0.06172839506172839,0,0)" xlink:href="#W"/><use transform="matrix(0.06172839506172839,0,0,0.06172839506172839,14.814814814814813,0)" xlink:href="#aA"/><use transform="matrix(0.06172839506172839,0,0,0.06172839506172839,27.160493827160494,0)" xlink:href="#aG"/><use transform="matrix(0.06172839506172839,0,0,0.06172839506172839,43.148148148148145,0)" xlink:href="#am"/><use transform="matrix(0.06172839506172839,0,0,0.06172839506172839,55.49382716049382,0)" xlink:href="#ad"/></g><g id="y"><use transform="matrix(0.06172839506172839,0,0,0.06172839506172839,0,0)" xlink:href="#aa"/><use transform="matrix(0.06172839506172839,0,0,0.06172839506172839,18.456790123456788,0)" xlink:href="#aA"/><use transform="matrix(0.06172839506172839,0,0,0.06172839506172839,30.80246913580247,0)" xlink:href="#ar"/><use transform="matrix(0.06172839506172839,0,0,0.06172839506172839,43.148148148148145,0)" xlink:href="#am"/></g><path fill="#333" d="M146-102V0H94v-102L6-248h54l60 105 60-105h54" id="aL"/><path fill="#333" d="M185-48c-13 30-37 53-82 52C43 2 14-33 14-96s30-98 90-98c62 0 83 45 84 108H66c0 31 8 55 39 56 18 0 30-7 34-22zm-45-69c5-46-57-63-70-21-2 6-4 13-4 21h74" id="aM"/><path fill="#333" d="M137-138c1-29-70-34-71-4 15 46 118 7 119 86 1 83-164 76-172 9l43-7c4 19 20 25 44 25 33 8 57-30 24-41C81-84 22-81 20-136c-2-80 154-74 161-7" id="aN"/><g id="z"><use transform="matrix(0.04938271604938272,0,0,0.04938271604938272,0,0)" xlink:href="#aL"/><use transform="matrix(0.04938271604938272,0,0,0.04938271604938272,10.864197530864198,0)" xlink:href="#aM"/><use transform="matrix(0.04938271604938272,0,0,0.04938271604938272,20.74074074074074,0)" xlink:href="#aN"/></g><path fill="#333" d="M175 0L67-191c6 58 2 128 3 191H24v-248h59L193-55c-6-58-2-129-3-193h46V0h-61" id="aO"/><path fill="#333" d="M110-194c64 0 96 36 96 99 0 64-35 99-97 99-61 0-95-36-95-99 0-62 34-99 96-99zm-1 164c35 0 45-28 45-65 0-40-10-65-43-65-34 0-45 26-45 65 0 36 10 65 43 65" id="aP"/><g id="A"><use transform="matrix(0.04938271604938272,0,0,0.04938271604938272,0,0)" xlink:href="#aO"/><use transform="matrix(0.04938271604938272,0,0,0.04938271604938272,12.790123456790125,0)" xlink:href="#aP"/></g><path fill="#3a414a" d="M212-179c-10-28-35-45-73-45-59 0-87 40-87 99 0 60 29 101 89 101 43 0 62-24 78-52l27 14C228-24 195 4 139 4 59 4 22-46 18-125c-6-104 99-153 187-111 19 9 31 26 39 46" id="aQ"/><path fill="#3a414a" d="M106-169C34-169 62-67 57 0H25v-261h32l-1 103c12-21 28-36 61-36 89 0 53 116 60 194h-32v-121c2-32-8-49-39-48" id="aR"/><g id="B"><use transform="matrix(0.06172839506172839,0,0,0.06172839506172839,0,0)" xlink:href="#aQ"/><use transform="matrix(0.06172839506172839,0,0,0.06172839506172839,15.987654320987653,0)" xlink:href="#aR"/><use transform="matrix(0.06172839506172839,0,0,0.06172839506172839,28.333333333333332,0)" xlink:href="#ap"/><use transform="matrix(0.06172839506172839,0,0,0.06172839506172839,40.67901234567901,0)" xlink:href="#ad"/><use transform="matrix(0.06172839506172839,0,0,0.06172839506172839,48.02469135802469,0)" xlink:href="#ag"/><use transform="matrix(0.06172839506172839,0,0,0.06172839506172839,60.37037037037037,0)" xlink:href="#am"/></g><path fill="#3a414a" d="M115-194c53 0 69 39 70 98 0 66-23 100-70 100C84 3 66-7 56-30L54 0H23l1-261h32v101c10-23 28-34 59-34zm-8 174c40 0 45-34 45-75 0-40-5-75-45-74-42 0-51 32-51 76 0 43 10 73 51 73" id="aS"/><g id="C"><use transform="matrix(0.06172839506172839,0,0,0.06172839506172839,0,0)" xlink:href="#aS"/><use transform="matrix(0.06172839506172839,0,0,0.06172839506172839,12.345679012345679,0)" xlink:href="#ap"/><use transform="matrix(0.06172839506172839,0,0,0.06172839506172839,24.691358024691358,0)" xlink:href="#ac"/><use transform="matrix(0.06172839506172839,0,0,0.06172839506172839,30.864197530864196,0)" xlink:href="#ac"/><use transform="matrix(0.06172839506172839,0,0,0.06172839506172839,37.03703703703704,0)" xlink:href="#am"/><use transform="matrix(0.06172839506172839,0,0,0.06172839506172839,49.382716049382715,0)" xlink:href="#ad"/><use transform="matrix(0.06172839506172839,0,0,0.06172839506172839,56.72839506172839,0)" xlink:href="#as"/></g><g id="D"><use transform="matrix(0.06172839506172839,0,0,0.06172839506172839,0,0)" xlink:href="#W"/><use transform="matrix(0.06172839506172839,0,0,0.06172839506172839,14.814814814814813,0)" xlink:href="#ad"/><use transform="matrix(0.06172839506172839,0,0,0.06172839506172839,22.160493827160494,0)" xlink:href="#am"/><use transform="matrix(0.06172839506172839,0,0,0.06172839506172839,34.50617283950617,0)" xlink:href="#ax"/><use transform="matrix(0.06172839506172839,0,0,0.06172839506172839,45.61728395061728,0)" xlink:href="#ax"/><use transform="matrix(0.06172839506172839,0,0,0.06172839506172839,56.72839506172839,0)" xlink:href="#am"/><use transform="matrix(0.06172839506172839,0,0,0.06172839506172839,69.07407407407408,0)" xlink:href="#ar"/></g><g id="E"><use transform="matrix(0.06172839506172839,0,0,0.06172839506172839,0,0)" xlink:href="#ai"/><use transform="matrix(0.06172839506172839,0,0,0.06172839506172839,12.716049382716047,0)" xlink:href="#ae"/><use transform="matrix(0.06172839506172839,0,0,0.06172839506172839,17.592592592592588,0)" xlink:href="#an"/><use transform="matrix(0.06172839506172839,0,0,0.06172839506172839,36.04938271604938,0)" xlink:href="#am"/></g><path fill="#333" d="M67-125c0 54 23 88 75 88 28 0 53-7 68-21v-34h-60v-39h108v91C232-14 192 4 140 4 58 4 20-42 15-125 8-236 126-280 215-234c19 10 29 26 37 47l-47 15c-11-23-29-39-63-39-53 1-75 33-75 86" id="aT"/><path fill="#333" d="M135-150c-39-12-60 13-60 57V0H25l-1-190h47c2 13-1 29 3 40 6-28 27-53 61-41v41" id="aU"/><path fill="#333" d="M133-34C117-15 103 5 69 4 32 3 11-16 11-54c-1-60 55-63 116-61 1-26-3-47-28-47-18 1-26 9-28 27l-52-2c7-38 36-58 82-57s74 22 75 68l1 82c-1 14 12 18 25 15v27c-30 8-71 5-69-32zm-48 3c29 0 43-24 42-57-32 0-66-3-65 30 0 17 8 27 23 27" id="aV"/><path fill="#333" d="M115-3C79 11 28 4 28-45v-112H4v-33h27l15-45h31v45h36v33H77v99c-1 23 16 31 38 25v30" id="aW"/><g id="F"><use transform="matrix(0.04938271604938272,0,0,0.04938271604938272,0,0)" xlink:href="#aT"/><use transform="matrix(0.04938271604938272,0,0,0.04938271604938272,13.827160493827162,0)" xlink:href="#aU"/><use transform="matrix(0.04938271604938272,0,0,0.04938271604938272,20.74074074074074,0)" xlink:href="#aM"/><use transform="matrix(0.04938271604938272,0,0,0.04938271604938272,30.617283950617285,0)" xlink:href="#aV"/><use transform="matrix(0.04938271604938272,0,0,0.04938271604938272,40.49382716049383,0)" xlink:href="#aW"/><use transform="matrix(0.04938271604938272,0,0,0.04938271604938272,46.370370370370374,0)" xlink:href="#aM"/><use transform="matrix(0.04938271604938272,0,0,0.04938271604938272,56.24691358024692,0)" xlink:href="#aU"/></g><path fill="#333" d="M114-157C55-157 80-60 75 0H25v-261h50l-1 109c12-26 28-41 61-42 86-1 58 113 63 194h-50c-7-57 23-157-34-157" id="aX"/><path fill="#333" d="M135-194c87-1 58 113 63 194h-50c-7-57 23-157-34-157-59 0-34 97-39 157H25l-1-190h47c2 12-1 28 3 38 12-26 28-41 61-42" id="aY"/><g id="G"><use transform="matrix(0.04938271604938272,0,0,0.04938271604938272,0,0)" xlink:href="#aW"/><use transform="matrix(0.04938271604938272,0,0,0.04938271604938272,5.8765432098765435,0)" xlink:href="#aX"/><use transform="matrix(0.04938271604938272,0,0,0.04938271604938272,16.691358024691358,0)" xlink:href="#aV"/><use transform="matrix(0.04938271604938272,0,0,0.04938271604938272,26.567901234567902,0)" xlink:href="#aY"/></g><path fill="#333" d="M128-127c34 4 56 21 59 58 7 91-148 94-172 28-4-9-6-17-7-26l51-5c1 24 16 35 40 36 23 0 39-12 38-36-1-31-31-36-65-34v-40c32 2 59-3 59-33 0-20-13-33-34-33s-33 13-35 32l-50-3c6-44 37-68 86-68 50 0 83 20 83 66 0 35-22 52-53 58" id="aZ"/><path fill="#333" d="M24 0v-54h51V0H24" id="ba"/><path fill="#333" d="M101-251c68 0 84 54 84 127C185-50 166 4 99 4S15-52 14-124c-1-75 17-127 87-127zm-1 216c37-5 36-46 36-89s4-89-36-89c-39 0-36 45-36 89 0 43-3 85 36 89" id="bb"/><g id="H"><use transform="matrix(0.04938271604938272,0,0,0.04938271604938272,0,0)" xlink:href="#aZ"/><use transform="matrix(0.04938271604938272,0,0,0.04938271604938272,9.876543209876544,0)" xlink:href="#ba"/><use transform="matrix(0.04938271604938272,0,0,0.04938271604938272,14.814814814814817,0)" xlink:href="#bb"/></g><path fill="#333" d="M190-63c-7 42-38 67-86 67-59 0-84-38-90-98-12-110 154-137 174-36l-49 2c-2-19-15-32-35-32-30 0-35 28-38 64-6 74 65 87 74 30" id="bc"/><g id="I"><use transform="matrix(0.04938271604938272,0,0,0.04938271604938272,0,0)" xlink:href="#aN"/><use transform="matrix(0.04938271604938272,0,0,0.04938271604938272,9.876543209876544,0)" xlink:href="#aM"/><use transform="matrix(0.04938271604938272,0,0,0.04938271604938272,19.75308641975309,0)" xlink:href="#bc"/></g><path fill="#333" d="M24 0v-248h52v208h133V0H24" id="bd"/><g id="J"><use transform="matrix(0.04938271604938272,0,0,0.04938271604938272,0,0)" xlink:href="#bd"/><use transform="matrix(0.04938271604938272,0,0,0.04938271604938272,10.814814814814815,0)" xlink:href="#aM"/><use transform="matrix(0.04938271604938272,0,0,0.04938271604938272,20.69135802469136,0)" xlink:href="#aN"/><use transform="matrix(0.04938271604938272,0,0,0.04938271604938272,30.567901234567906,0)" xlink:href="#aN"/></g><path fill="#333" d="M169-182c-1-43-94-46-97-3 18 66 151 10 154 114 3 95-165 93-204 36-6-8-10-19-12-30l50-8c3 46 112 56 116 5-17-69-150-10-154-114-4-87 153-88 188-35 5 8 8 18 10 28" id="be"/><g id="K"><use transform="matrix(0.04938271604938272,0,0,0.04938271604938272,0,0)" xlink:href="#be"/><use transform="matrix(0.04938271604938272,0,0,0.04938271604938272,11.851851851851853,0)" xlink:href="#aM"/><use transform="matrix(0.04938271604938272,0,0,0.04938271604938272,21.7283950617284,0)" xlink:href="#bc"/></g><path fill="#3a414a" d="M140-251c81 0 123 46 123 126C263-46 219 4 140 4 59 4 17-45 17-125s42-126 123-126zm0 227c63 0 89-41 89-101s-29-99-89-99c-61 0-89 39-89 99S79-25 140-24" id="bf"/><path fill="#3a414a" d="M101-234c-31-9-42 10-38 44h38v23H63V0H32v-167H5v-23h27c-7-52 17-82 69-68v24" id="bg"/><g id="L"><use transform="matrix(0.06172839506172839,0,0,0.06172839506172839,0,0)" xlink:href="#bf"/><use transform="matrix(0.06172839506172839,0,0,0.06172839506172839,17.28395061728395,0)" xlink:href="#bg"/><use transform="matrix(0.06172839506172839,0,0,0.06172839506172839,23.02469135802469,0)" xlink:href="#bg"/></g><path fill="#3a414a" d="M96-169c-40 0-48 33-48 73s9 75 48 75c24 0 41-14 43-38l32 2c-6 37-31 61-74 61-59 0-76-41-82-99-10-93 101-131 147-64 4 7 5 14 7 22l-32 3c-4-21-16-35-41-35" id="bh"/><path fill="#3a414a" d="M143 0L79-87 56-68V0H24v-261h32v163l83-92h37l-77 82L181 0h-38" id="bi"/><g id="M"><use transform="matrix(0.06172839506172839,0,0,0.06172839506172839,0,0)" xlink:href="#aQ"/><use transform="matrix(0.06172839506172839,0,0,0.06172839506172839,15.987654320987653,0)" xlink:href="#aR"/><use transform="matrix(0.06172839506172839,0,0,0.06172839506172839,28.333333333333332,0)" xlink:href="#am"/><use transform="matrix(0.06172839506172839,0,0,0.06172839506172839,40.67901234567901,0)" xlink:href="#bh"/><use transform="matrix(0.06172839506172839,0,0,0.06172839506172839,51.79012345679013,0)" xlink:href="#bi"/></g><g id="N"><use transform="matrix(0.06172839506172839,0,0,0.06172839506172839,0,0)" xlink:href="#X"/><use transform="matrix(0.06172839506172839,0,0,0.06172839506172839,14.814814814814813,0)" xlink:href="#am"/><use transform="matrix(0.06172839506172839,0,0,0.06172839506172839,27.160493827160494,0)" xlink:href="#af"/><use transform="matrix(0.06172839506172839,0,0,0.06172839506172839,39.50617283950617,0)" xlink:href="#ax"/><use transform="matrix(0.06172839506172839,0,0,0.06172839506172839,50.61728395061728,0)" xlink:href="#aA"/><use transform="matrix(0.06172839506172839,0,0,0.06172839506172839,62.962962962962955,0)" xlink:href="#ad"/></g><path fill="#3a414a" d="M30-248c118-7 216 8 213 122C240-48 200 0 122 0H30v-248zM63-27c89 8 146-16 146-99s-60-101-146-95v194" id="bj"/><g id="O"><use transform="matrix(0.06172839506172839,0,0,0.06172839506172839,0,0)" xlink:href="#bj"/><use transform="matrix(0.06172839506172839,0,0,0.06172839506172839,15.987654320987653,0)" xlink:href="#ap"/><use transform="matrix(0.06172839506172839,0,0,0.06172839506172839,28.333333333333332,0)" xlink:href="#ac"/><use transform="matrix(0.06172839506172839,0,0,0.06172839506172839,34.50617283950617,0)" xlink:href="#ap"/></g><g id="P"><use transform="matrix(0.06172839506172839,0,0,0.06172839506172839,0,0)" xlink:href="#ac"/><use transform="matrix(0.06172839506172839,0,0,0.06172839506172839,6.172839506172839,0)" xlink:href="#aA"/></g><g id="Q"><use transform="matrix(0.06172839506172839,0,0,0.06172839506172839,0,0)" xlink:href="#aH"/><use transform="matrix(0.06172839506172839,0,0,0.06172839506172839,14.814814814814813,0)" xlink:href="#aq"/><use transform="matrix(0.06172839506172839,0,0,0.06172839506172839,27.160493827160494,0)" xlink:href="#bg"/><use transform="matrix(0.06172839506172839,0,0,0.06172839506172839,32.901234567901234,0)" xlink:href="#bg"/><use transform="matrix(0.06172839506172839,0,0,0.06172839506172839,39.074074074074076,0)" xlink:href="#am"/><use transform="matrix(0.06172839506172839,0,0,0.06172839506172839,51.41975308641975,0)" xlink:href="#ad"/></g><path fill="#3a414a" d="M147 0H94L2-248h55l64 206c17-72 42-137 63-206h54" id="bk"/><path fill="#3a414a" d="M185-48c-13 30-37 53-82 52C43 2 14-33 14-96s30-98 90-98c62 0 83 45 84 108H66c0 31 8 55 39 56 18 0 30-7 34-22zm-45-69c5-46-57-63-70-21-2 6-4 13-4 21h74" id="bl"/><path fill="#3a414a" d="M114-157C55-157 80-60 75 0H25v-261h50l-1 109c12-26 28-41 61-42 86-1 58 113 63 194h-50c-7-57 23-157-34-157" id="bm"/><path fill="#3a414a" d="M25-224v-37h50v37H25zM25 0v-190h50V0H25" id="bn"/><path fill="#3a414a" d="M190-63c-7 42-38 67-86 67-59 0-84-38-90-98-12-110 154-137 174-36l-49 2c-2-19-15-32-35-32-30 0-35 28-38 64-6 74 65 87 74 30" id="bo"/><path fill="#3a414a" d="M25 0v-261h50V0H25" id="bp"/><g id="R"><use transform="matrix(0.12345679012345678,0,0,0.12345679012345678,0,0)" xlink:href="#bk"/><use transform="matrix(0.12345679012345678,0,0,0.12345679012345678,27.16049382716049,0)" xlink:href="#bl"/><use transform="matrix(0.12345679012345678,0,0,0.12345679012345678,51.85185185185185,0)" xlink:href="#bm"/><use transform="matrix(0.12345679012345678,0,0,0.12345679012345678,78.88888888888889,0)" xlink:href="#bn"/><use transform="matrix(0.12345679012345678,0,0,0.12345679012345678,91.23456790123457,0)" xlink:href="#bo"/><use transform="matrix(0.12345679012345678,0,0,0.12345679012345678,115.92592592592592,0)" xlink:href="#bp"/><use transform="matrix(0.12345679012345678,0,0,0.12345679012345678,128.2716049382716,0)" xlink:href="#bl"/></g><path fill="#3a414a" d="M67-125c0 53 21 87 73 88 37 1 54-22 65-47l45 17C233-25 199 4 140 4 58 4 20-42 15-125 8-235 124-281 211-232c18 10 29 29 36 50l-46 12c-8-25-30-41-62-41-52 0-71 34-72 86" id="bq"/><path fill="#3a414a" d="M110-194c64 0 96 36 96 99 0 64-35 99-97 99-61 0-95-36-95-99 0-62 34-99 96-99zm-1 164c35 0 45-28 45-65 0-40-10-65-43-65-34 0-45 26-45 65 0 36 10 65 43 65" id="br"/><path fill="#3a414a" d="M88-194c31-1 46 15 58 34l-1-101h50l1 261h-48c-2-10 0-23-3-31C134-8 116 4 84 4 32 4 16-41 15-95c0-56 19-97 73-99zm17 164c33 0 40-30 41-66 1-37-9-64-41-64s-38 30-39 65c0 43 13 65 39 65" id="bs"/><g id="S"><use transform="matrix(0.12345679012345678,0,0,0.12345679012345678,0,0)" xlink:href="#bq"/><use transform="matrix(0.12345679012345678,0,0,0.12345679012345678,31.975308641975307,0)" xlink:href="#br"/><use transform="matrix(0.12345679012345678,0,0,0.12345679012345678,59.01234567901234,0)" xlink:href="#bs"/><use transform="matrix(0.12345679012345678,0,0,0.12345679012345678,86.04938271604938,0)" xlink:href="#bl"/></g><path fill="#3a414a" d="M76-208v77h127v40H76V0H24v-248h183v40H76" id="bt"/><path fill="#3a414a" d="M231 0h-52l-39-155L100 0H48L-1-190h46L77-45c9-52 24-97 36-145h53l37 145 32-145h46" id="bu"/><g id="T"><use transform="matrix(0.12345679012345678,0,0,0.12345679012345678,0,0)" xlink:href="#bt"/><use transform="matrix(0.12345679012345678,0,0,0.12345679012345678,27.037037037037035,0)" xlink:href="#bp"/><use transform="matrix(0.12345679012345678,0,0,0.12345679012345678,39.382716049382715,0)" xlink:href="#br"/><use transform="matrix(0.12345679012345678,0,0,0.12345679012345678,66.41975308641975,0)" xlink:href="#bu"/></g><path fill="#3a414a" d="M133-34C117-15 103 5 69 4 32 3 11-16 11-54c-1-60 55-63 116-61 1-26-3-47-28-47-18 1-26 9-28 27l-52-2c7-38 36-58 82-57s74 22 75 68l1 82c-1 14 12 18 25 15v27c-30 8-71 5-69-32zm-48 3c29 0 43-24 42-57-32 0-66-3-65 30 0 17 8 27 23 27" id="bv"/><path fill="#3a414a" d="M135-150c-39-12-60 13-60 57V0H25l-1-190h47c2 13-1 29 3 40 6-28 27-53 61-41v41" id="bw"/><path fill="#3a414a" d="M115-3C79 11 28 4 28-45v-112H4v-33h27l15-45h31v45h36v33H77v99c-1 23 16 31 38 25v30" id="bx"/><g id="U"><use transform="matrix(0.12345679012345678,0,0,0.12345679012345678,0,0)" xlink:href="#bq"/><use transform="matrix(0.12345679012345678,0,0,0.12345679012345678,31.975308641975307,0)" xlink:href="#bm"/><use transform="matrix(0.12345679012345678,0,0,0.12345679012345678,59.01234567901234,0)" xlink:href="#bv"/><use transform="matrix(0.12345679012345678,0,0,0.12345679012345678,83.7037037037037,0)" xlink:href="#bw"/><use transform="matrix(0.12345679012345678,0,0,0.12345679012345678,100.98765432098764,0)" xlink:href="#bx"/></g></defs></g></svg>